<?xml version="1.0" encoding="utf-8"?>
<!-- Generator: Adobe Illustrator 16.0.0, SVG Export Plug-In . SVG Version: 6.00 Build 0)  -->
<!DOCTYPE svg PUBLIC "-//W3C//DTD SVG 1.1//EN" "http://www.w3.org/Graphics/SVG/1.1/DTD/svg11.dtd">
<svg version="1.1" id="Layer_1" xmlns="http://www.w3.org/2000/svg" xmlns:xlink="http://www.w3.org/1999/xlink" x="0px" y="0px"
	 width="900px" height="900px" viewBox="0 0 900 900" enable-background="new 0 0 900 900" xml:space="preserve">
<g>
	<g>
		<path fill="#517F38" d="M695.229,191.108c7.805,10.628,23.463,12.393,23.463,12.393s3.004-15.468-4.801-26.097
			c-7.805-10.628-23.463-12.393-23.463-12.393S687.424,180.48,695.229,191.108z"/>
		<path fill="#3B6837" d="M728.003,184.752c-7.155,7.052-6.765,19.049-6.765,19.049s11.99,0.565,19.146-6.487
			c7.154-7.052,6.765-19.049,6.765-19.049S735.158,177.701,728.003,184.752z"/>
		<path fill="#65B15B" d="M710.27,179.418c-1.453,13.106,8.874,25.007,8.874,25.007s12.685-9.349,14.138-22.455
			s-8.873-25.007-8.873-25.007S711.723,166.313,710.27,179.418z"/>
	</g>
	<g>
		<polygon fill="#62324A" points="711.238,240.635 738.398,240.635 747.303,201.009 702.333,201.009 		"/>
		<polygon fill="#A0523A" points="700.998,240.635 728.157,240.635 732.164,201.009 692.093,201.009 		"/>
	</g>
</g>
<g>
	<g>
		
			<rect x="601.667" y="434.757" transform="matrix(0.9847 0.1741 -0.1741 0.9847 89.8668 -98.018)" fill="#6075B0" width="4.14" height="57.137"/>
		
			<rect x="604.364" y="433.654" transform="matrix(0.9847 0.1743 -0.1743 0.9847 86.3632 -99.1106)" fill="#6075B0" width="6.417" height="17.182"/>
	</g>
	<g>
		<polygon fill="#794061" points="594,499 589.875,498.654 594.649,441.718 597.145,438.076 598.775,442.064 		"/>
	</g>
	<g>
		<polygon fill="#072859" points="588.266,501.909 584.201,502.701 573.283,446.618 574.693,442.433 577.348,445.826 		"/>
	</g>
	<g>
		<polygon fill="#F3885E" points="597.402,514.955 579.707,514.955 573.904,468.109 603.204,468.109 		"/>
		<polygon fill="#FFBE62" points="604.074,514.955 586.379,514.955 583.768,468.109 609.877,468.109 		"/>
	</g>
</g>
<rect x="549.734" y="254.02" opacity="0.54" fill="#B0ACBF" width="211.066" height="29.98"/>
<g>
	<path fill="#7C4B39" d="M669.21,298.512l-11.655,7.212c-8.445,5.226-11.461,16.057-6.951,24.905
		c0.896,1.76,1.457,2.893,1.344,2.763c-0.439-0.508,17.854-34.733,17.854-34.733"/>
	<path fill="#FCBBA4" d="M699.545,409.993h6.029c5.533,0,10.059-4.527,10.059-10.06v-28.347c0-5.533-4.525-10.06-10.059-10.06
		h-6.029c-5.533,0-10.061,4.527-10.061,10.06v28.347C689.485,405.466,694.012,409.993,699.545,409.993z"/>
	<path fill="#7C4B39" d="M652.153,333.393c-0.271,2.283,10.427,6.143,10.554,8.552l-1.74,4.835
		c13.135-4.762,1.547,2.496,1.547,2.514c3.9,11.575,2.545,17.979,13.688,22.383c5.555,2.193,11.648,3.199,17.992,2.75
		c8.52-0.593,16.088,2.067,22.27-0.881c1.276-0.593,2.48-1.438,3.631-2.57c2.176-2.174,4.117-4.565,5.752-7.153
		c0.629-1.025,1.24-2.049,1.798-3.127c3.36-6.489,10.235-25.541,9.679-33.359c-1.545-22.072-22.691-36.847-47.029-35.175
		c-0.627,0.043-1.239,0.054-1.869,0.09c-13.139,0.917-24.373,7.891-31.238,18.01c-0.359,0.539-0.719,1.096-1.06,1.653
		c0,0.018,0,0.018,0,0.018c-1.978,3.217-3.038,16.985-3.038,16.985C652.639,330.373,652.332,331.865,652.153,333.393z"/>
	<path fill="#FCBBA4" d="M653.135,340.457l0.305,6.057l0.521,10.048l0.817,3.562c0.071,1.582,0.872,9.9,1.16,11.41
		c2.768,14.217,12.104,17.237,26.591,19.034c0.431,0.072,0.881,0.108,1.313,0.126c1.545,0.162,3.109,0.18,4.709,0.108
		c1.545-0.072,3.055-0.27,4.547-0.557c2.894-0.521,5.68-1.438,8.25-2.66c0,0,0.018,0,0.035-0.018
		c6.398-3.02,11.666-7.962,15.08-14.02c2.605-4.583,4.152-9.795,4.314-15.314c0.018-0.377,0.018-0.754,0.018-1.15
		c0.018-0.431,0-0.898-0.035-1.366v-0.234l-0.036-1.096l-0.163-2.858l-0.484-9.867l-0.018-0.09v-0.018l-0.09-1.833l-0.072-1.42
		l-0.071-1.312l-0.019-0.342c-0.145-2.283-0.594-4.475-1.276-6.578c-0.431-1.492-0.987-2.93-1.617-4.313
		c-0.091-0.216-0.161-0.414-0.27-0.629c-0.504-1.132-1.097-2.265-1.745-3.325c0-0.018,0-0.018,0-0.018
		c-2.443-4.08-5.715-7.603-9.596-10.317c-0.773-0.558-1.582-1.078-2.392-1.563c-5.644-3.307-12.294-5.087-19.286-4.728
		c-5.824,0.306-10.127,2.049-14.818,4.871c-2.839,1.708-5.41,3.811-7.62,6.237c-3.146,3.415-5.194,7.441-6.704,11.88
		c-0.09,0.252-0.162,0.503-0.234,0.755c-0.449,1.456-0.755,2.948-0.934,4.476C653.044,335.676,653.008,338.048,653.135,340.457z"/>
	<path fill="#7C4B39" d="M665.366,310.422c-7.106,19.581,11.604,17.985,12.474,26.978c0.098,1.011,0.457,2.499,0.725,9.863
		l1.43,4.607c0.414,1.438,1.744,2.426,3.236,2.426c1.869,0,3.379-1.51,3.379-3.379v-0.09l-0.162-7.333l3.648,9.67
		c2.625,6.974,6.615,13.282,11.647,18.603c4.188,4.403,9.095,8.142,14.54,10.982c0,0,22.828-13.57,22.828-44.557
		c0-2.462-0.145-5.033-0.449-7.71c-0.289-2.409-0.684-4.656-1.223-6.758c-9.455-38.5-56.762-25.361-61.309-23.653
		C671.35,301.867,665.366,310.422,665.366,310.422z"/>
	<path fill="#FCBBA4" d="M649.109,361.208c-0.006,0.063,0.006,0.507,0.006,0.507c0.063,2.118,1.898,3.8,6.441,3.669l-0.637-16.534
		C651.23,354.476,649.442,357.745,649.109,361.208z"/>
	<path fill="#7C4B39" d="M651.58,341.195h10.109c1.175,0,2.135-0.96,2.135-2.135l0,0c0-1.174-0.96-2.134-2.135-2.134H651.58
		c-1.174,0-2.135,0.96-2.135,2.134l0,0C649.445,340.235,650.406,341.195,651.58,341.195z"/>
	<path fill="#081344" d="M657.262,348.808L657.262,348.808c0.838,0,1.523-0.686,1.523-1.525v-2.246c0-0.839-0.686-1.525-1.523-1.525
		l0,0c-0.84,0-1.525,0.686-1.525,1.525v2.246C655.736,348.122,656.422,348.808,657.262,348.808z"/>
	<path opacity="0.2" fill="#081344" d="M701.743,371.767c4.188,4.403,9.095,8.142,14.54,10.982c0,0,22.828-13.57,22.828-44.557
		c0-2.462-0.145-5.033-0.449-7.71c-0.289-2.409-0.684-4.656-1.223-6.758c-1.008,5.896-3.668,14.828-10.461,25.864
		C716.644,366.375,705.428,370.742,701.743,371.767z"/>
	<path fill="#7C4B39" d="M655.638,370.504l0.301,11.569c0,9.863,11.682,13.826,20.353,12.889l13.818-1.494l-1.393-11.976
		l-3.77-22.917l6.092-17.115l-12.547,5.208l0.002,0.019c0.947,13.599-8.797,24.591-22.414,23.962L655.638,370.504z"/>
	<path fill="#FCBBA4" d="M687.439,341.035c-1.396,0.008-2.521,1.147-2.512,2.544l0.058,8.609l0.06,7.521l2.957-0.018
		c0.217-0.004,0.432-0.008,0.636-0.04c4.944-0.375,8.847-4.697,8.821-9.638c-0.009-2.565-1.1-4.746-2.834-6.443
		c-1.553-1.513-3.647-2.375-5.963-2.504l-0.014,0c-0.269-0.039-0.498-0.049-0.769-0.034L687.439,341.035z"/>
</g>
<g>
	<g>
		<path fill="#FBAF3D" d="M131.39,620.03v19.631l90.923-0.001c5.418,0,9.814-4.396,9.814-9.814c0-2.704-1.099-5.16-2.871-6.944
			c-1.783-1.772-4.24-2.871-6.943-2.871H131.39z"/>
		<path fill="#FFD72E" d="M184.538,626.583v-6.514h37.968c4.254,0,7.889,2.718,9.248,6.514H184.538z"/>
		<path fill="#F38154" d="M109.689,620.03v19.631l90.923-0.001c5.417,0,9.814-4.396,9.814-9.814c0-2.704-1.099-5.16-2.871-6.943
			c-1.783-1.773-4.24-2.872-6.943-2.872H109.689z"/>
		<path fill="#FFFFFF" d="M109.689,623.396v12.586h88.275c3.478,0,6.293-2.815,6.293-6.293c0-1.739-0.707-3.31-1.84-4.453
			c-1.145-1.134-2.715-1.84-4.453-1.84H109.689z"/>
	</g>
	<g>
		<path fill="#A2CC3B" d="M127.849,639.773v19.634h90.923c5.418,0,9.809-4.398,9.809-9.816c0-1.665-0.416-3.235-1.146-4.611
			c-0.459-0.857-1.045-1.647-1.725-2.335c-1.783-1.775-4.237-2.871-6.938-2.871H127.849z"/>
		<path fill="#709B2C" d="M137.275,639.773v5.206h90.159c-0.459-0.857-1.045-1.647-1.725-2.335
			c-1.783-1.775-4.237-2.871-6.938-2.871H137.275z"/>
		<path fill="#709B2C" d="M137.275,659.416v-5.206h90.159c-0.459,0.858-1.045,1.647-1.725,2.336c-1.783,1.774-4.237,2.87-6.938,2.87
			H137.275z"/>
		<path fill="#4C842F" d="M97.732,639.774v19.63h90.922c5.418,0,9.815-4.396,9.815-9.815c0-2.703-1.1-5.16-2.871-6.943
			c-1.784-1.772-4.24-2.871-6.944-2.871H97.732z"/>
		<path fill="#FFFFFF" d="M97.732,643.14v12.585h88.275c3.479,0,6.293-2.815,6.293-6.293c0-1.738-0.707-3.309-1.84-4.453
			c-1.144-1.133-2.714-1.84-4.453-1.84L97.732,643.14z"/>
	</g>
</g>
<g>
	<g>
		<rect x="553.859" y="202.835" fill="#DADAE0" width="114.745" height="24.413"/>
		<rect x="615.844" y="202.558" fill="#FFFFFF" width="53.064" height="24.968"/>
		<g>
			
				<line fill="none" stroke="#B0ACBF" stroke-width="1.7994" stroke-miterlimit="10" x1="553.961" y1="207.329" x2="668.807" y2="207.329"/>
			
				<line fill="none" stroke="#B0ACBF" stroke-width="1.7994" stroke-miterlimit="10" x1="553.961" y1="212.239" x2="668.807" y2="212.239"/>
			
				<line fill="none" stroke="#B0ACBF" stroke-width="1.7994" stroke-miterlimit="10" x1="553.961" y1="217.149" x2="668.807" y2="217.149"/>
			
				<line fill="none" stroke="#B0ACBF" stroke-width="1.7994" stroke-miterlimit="10" x1="553.961" y1="222.06" x2="668.807" y2="222.06"/>
		</g>
	</g>
	<g>
		<g>
			<path fill="#244689" d="M454.482,320.047l-3.72,142.193h-84.384l-2.237-140.534c-0.004-17.97,13.608-32.921,31.518-35.936
				c2.154-0.355,4.365-0.543,6.635-0.544l12.898-0.003C436.265,285.219,454.479,299.909,454.482,320.047z"/>
			<g>
				<path fill="#D26552" d="M422.441,266.528l-20.234,0.005c-15.751,0.004-28.524-12.762-28.528-28.514l-0.006-19.857
					c-0.005-19.802,16.044-35.859,35.846-35.864l5.568-0.001c19.801-0.005,35.858,16.043,35.863,35.845l0.005,19.857
					C450.96,253.751,438.193,266.524,422.441,266.528z"/>
				<path fill="#FFC7B0" d="M383.931,226.136l-0.519,8.618l-0.358,5.818l-2.719-0.114c-0.199-0.01-0.397-0.021-0.583-0.052
					c-4.531-0.458-7.946-3.936-7.724-7.759c0.112-1.985,1.204-3.635,2.867-4.89c1.49-1.118,3.45-1.714,5.586-1.735h0.012
					c0.248-0.021,0.459-0.021,0.708,0L383.931,226.136z"/>
				<path fill="#FFC7B0" d="M443.188,226.319l0.524,8.618l0.362,5.818l2.719-0.115c0.198-0.011,0.397-0.021,0.583-0.053
					c4.531-0.46,7.944-3.939,7.721-7.763c-0.113-1.985-1.206-3.635-2.869-4.888c-1.491-1.117-3.452-1.712-5.587-1.732h-0.013
					c-0.248-0.021-0.459-0.021-0.708,0L443.188,226.319z"/>
				<path fill="#F4A891" d="M414.85,298.884l-5.919,0.001c-5.742,0.001-10.442-4.696-10.443-10.438l-0.009-30.059
					c-0.001-5.743,4.696-10.442,10.439-10.444l5.919-0.001c5.743-0.001,10.442,4.696,10.444,10.438l0.008,30.058
					C425.291,294.183,420.593,298.883,414.85,298.884z"/>
				<path fill="#FFC7B0" d="M448.408,224.927l-0.841,15.767l-0.123,2.361c-0.074,1.555-0.285,3.097-0.583,4.58
					c-2.542,12.529-12.582,22.438-25.368,25.585c-1.427,0.356-2.892,0.618-4.381,0.796c-0.447,0.071-0.907,0.106-1.353,0.13
					c-0.944,0.095-1.887,0.143-2.843,0.144c-0.683,0-1.366-0.024-2.061-0.047c-1.563-0.083-3.079-0.26-4.581-0.533
					c-0.62-0.106-1.229-0.237-1.837-0.379c-2.322-0.521-4.531-1.28-6.629-2.229c0,0-0.013,0-0.025-0.012
					c-10.057-4.542-17.383-13.485-19.385-24.007c-0.012-0.036-0.013-0.06-0.013-0.095c-0.199-1.139-0.348-2.29-0.435-3.452
					c-0.037-0.368-0.05-0.724-0.062-1.091c-0.013-0.379-0.025-0.748-0.013-1.127c-0.025-0.439,0-0.89,0.024-1.341v-0.237l0.049-1.08
					l0.161-2.812l0.247-4.817v-0.047l0.247-4.864l0.013-0.095v-0.012l0.099-1.792l0.074-1.4l0.075-1.281l0.024-0.332
					c0.136-2.23,0.607-4.39,1.289-6.454c0.459-1.448,1.029-2.86,1.662-4.212c0.087-0.226,0.174-0.415,0.273-0.617
					c0.521-1.116,1.129-2.219,1.787-3.263c0-0.012,0.012-0.024,0.012-0.024c2.494-3.987,5.857-7.439,9.829-10.11
					c0.794-0.534,1.613-1.045,2.445-1.52c5.796-3.252,12.599-4.998,19.773-4.644c9.596,0.472,18.2,4.586,24.198,10.873
					c1.763,1.851,3.205,3.867,4.384,6.05c0.981,1.768,1.789,3.63,2.484,5.599c0.448,1.234,0.771,2.503,1.006,3.784
					c0,0,0,0.012,0,0.024c0.076,0.439,0.137,0.866,0.188,1.305c0.1,0.771,0.174,1.554,0.211,2.349
					C448.506,221.842,448.494,223.373,448.408,224.927z"/>
				<g>
					<path fill="#0A194D" d="M426.298,235.088h-0.069c-0.834,0-1.518-0.682-1.518-1.517l-0.001-4.677
						c0-0.834,0.682-1.517,1.516-1.518h0.07c0.834,0,1.517,0.683,1.518,1.517l0.001,4.678
						C427.814,234.405,427.132,235.088,426.298,235.088z"/>
					<path fill="#0A194D" d="M399.194,234.996h-0.069c-0.834,0-1.517-0.683-1.518-1.517l0-4.678c0-0.834,0.682-1.517,1.516-1.517
						h0.07c0.834,0,1.517,0.682,1.517,1.516l0.001,4.678C400.711,234.313,400.029,234.996,399.194,234.996z"/>
					<path fill="#D26552" d="M431.97,223.105l-11.74,0.002c-0.868,0-1.579-0.709-1.579-1.578l0,0c0-0.868,0.71-1.578,1.578-1.579
						l11.741-0.003c0.868,0,1.578,0.71,1.578,1.578l0,0C433.548,222.394,432.838,223.104,431.97,223.105z"/>
					<path fill="#D26552" d="M405.28,223.111l-11.74,0.003c-0.868,0-1.579-0.71-1.579-1.578l0,0c0-0.868,0.71-1.579,1.578-1.579
						l11.74-0.003c0.868,0,1.578,0.71,1.578,1.578l0,0C406.858,222.401,406.148,223.111,405.28,223.111z"/>
					<path fill="#FFFFFF" d="M421.942,249.646c-3.176,4.451-6.096,7.412-10.438,6.77c-3.641-0.538-6.595-3.148-8.415-7.018
						L421.942,249.646z"/>
					<path fill="#FC9F7B" d="M408.853,239.937l7.448-0.001C416.301,239.935,412.785,244.681,408.853,239.937z"/>
				</g>
				<path fill="#FFC7B0" d="M448.408,224.927l-0.841,15.767l-0.123,2.361c-0.074,1.555-0.285,3.097-0.583,4.58
					c-2.542,12.529-12.582,22.438-25.368,25.585c-1.427,0.356-2.892,0.618-4.381,0.796c-0.447,0.071-0.907,0.106-1.353,0.13
					c-0.944,0.095-1.887,0.143-2.843,0.144c-0.683,0-1.366-0.024-2.061-0.047c-1.775-0.071-3.513-0.26-5.226-0.544
					c-0.348-0.059-0.683-0.106-1.031-0.178c-2.346-0.521-4.569-1.28-6.679-2.229c0,0-0.012,0-0.025-0.011
					c-10.131-4.577-17.519-13.58-19.496-24.197c-0.012-0.036-0.013-0.06-0.013-0.095c-0.211-1.139-0.36-2.29-0.435-3.452
					c-0.037-0.368-0.05-0.724-0.062-1.091c-0.013-0.379-0.025-0.748-0.013-1.127c-0.025-0.439,0-0.89,0.024-1.341v-0.237l0.049-1.08
					l0.161-2.812l0.247-4.817c1.557,17.642,8.092,39.932,31.108,40.828c31.867,1.237,38.474-32.244,38.965-51.511
					C448.506,221.842,448.494,223.373,448.408,224.927z"/>
			</g>
			<g>
				<polygon fill="#244689" points="427.909,462.24 394.312,462.24 395.353,282.736 402.794,282.492 410.709,299.5 419.422,282.978 
					427.358,283.115 				"/>
			</g>
		</g>
		<polygon fill="#B0ACBF" points="402.941,282.352 398.011,290.333 391.514,286.975 398.498,277.189 		"/>
		<polygon fill="#B0ACBF" points="419.495,282.861 424.771,290.327 431.217,288.225 425.442,278.119 		"/>
		<ellipse fill="#D26552" cx="440.36" cy="204.007" rx="12.251" ry="11.709"/>
		<ellipse fill="#D26552" cx="420.884" cy="207.915" rx="9.425" ry="9.007"/>
		<ellipse fill="#D26552" cx="406.119" cy="208.519" rx="8.796" ry="8.406"/>
		<ellipse fill="#D26552" cx="389.939" cy="206.271" rx="8.325" ry="7.956"/>
		<path fill="#D26552" d="M400.93,189.456c0,0,17.591-4.808,27.018,1.494c9.426,6.303,14.455,15.008,14.455,15.008l-36.126,3.012
			l-21.677-3.297l8.321-15.164"/>
		<path fill="#D26552" d="M385.228,208.524l-3.998,25.421c-0.185,1.179-1.576,1.787-2.63,1.151l0,0
			c-0.47-0.283-0.768-0.765-0.803-1.294l-1.207-18.521C376.591,215.281,383.027,199.968,385.228,208.524z"/>
		<path fill="#D26552" d="M440.52,211.813l4.011,25.42c0.186,1.179,1.577,1.786,2.631,1.149l0,0
			c0.469-0.283,0.768-0.765,0.801-1.294l1.196-23.626C449.159,213.462,442.716,203.255,440.52,211.813z"/>
		<path fill="#D26552" d="M381.465,232.693c-0.47,6.155,2.994,34.375,29.697,34.969c26.703,0.594,32.081-26.721,32.505-32.433
			c0.425-5.712,4.397-5.105,4.397-3.904l-0.153,14.722c0.005,17.238-14.614,31.217-32.652,31.221l-3.792,0.001
			c-18.038,0.004-33.921-13.076-33.926-30.315l0.154-14.111C377.695,232.844,381.505,232.168,381.465,232.693z"/>
	</g>
	
		<rect x="385.8" y="691.946" transform="matrix(0.9996 -0.0279 0.0279 0.9996 -19.3872 11.2819)" fill="#0C0F39" width="17.75" height="17.153"/>
	<g>
		<path fill="#87888D" d="M407.998,710.663l-26.077,0.728l0,0c-0.159-5.692,4.328-10.436,10.022-10.594l5.458-0.152
			C403.094,700.485,407.839,704.972,407.998,710.663L407.998,710.663z"/>
		
			<rect x="381.412" y="710.796" transform="matrix(0.9996 -0.0279 0.0279 0.9996 -19.7087 11.2781)" fill="#0A194D" width="26.92" height="4.217"/>
	</g>
	<polygon fill="#6C1A48" points="407.043,478.87 406.914,484.088 405.678,685.31 405.678,685.321 405.43,695.306 405.382,696.879 
		405.382,696.974 384.626,697.672 382.568,697.742 373.047,578.996 368.729,486.855 368.598,484.088 368.444,480.799 
		368.409,480.137 402.689,479.013 405.222,478.93 	"/>
	<path opacity="0.62" fill="#0C0F39" d="M410.724,503.216c0,0,0,0.438-0.024,1.254C410.688,503.76,410.688,503.322,410.724,503.216z
		"/>
	<polygon fill="#6C1A48" points="450.563,459.155 450.122,484.689 368.606,484.292 366.435,459.155 	"/>
	<path opacity="0.16" fill="#0C0F39" d="M410.724,503.216c0,0,0,0.438-0.024,1.254C410.688,503.76,410.688,503.322,410.724,503.216z
		"/>
	<polygon fill="#747577" points="381.237,691.984 406.237,691.655 405.744,697.41 381.731,698.068 	"/>
	<polygon fill="#0C0F39" points="428.98,708.378 446.722,707.881 446.152,690.737 428.409,691.234 	"/>
	<g>
		<path fill="#87888D" d="M424.886,710.425l26.077-0.73l0,0c-0.189-5.691-4.958-10.176-10.653-10.016l-5.458,0.152
			C429.159,699.99,424.697,704.733,424.886,710.425L424.886,710.425z"/>
		<polygon fill="#0A194D" points="424.741,714.414 451.65,713.66 451.51,709.445 424.601,710.198 		"/>
	</g>
	<polygon fill="#6C1A48" points="411.671,478.975 412.12,484.175 425.652,684.984 425.653,684.996 426.511,694.949 426.654,696.518 
		426.66,696.612 447.423,696.15 449.482,696.106 451.729,577.031 450.409,484.807 450.37,482.036 450.322,478.744 450.317,478.081 
		416.027,478.873 413.494,478.932 	"/>
	<polygon fill="#747577" points="450.458,690.284 425.481,691.352 426.326,697.068 450.337,696.385 	"/>
	<g>
		<path fill="#F1AE9B" d="M374.199,318.257c0,0-10.57,31.247-11.681,70.501c-0.854,30.223-2.113,100.28-2.113,100.28l-13.674-0.279
			c0,0-4.195-40.589-3.978-96.466c0.217-55.878,15.681-80.313,21.514-82.234S374.711,311.565,374.199,318.257z"/>
		<g>
			<path fill="#F1AE9B" d="M370.474,506.492l-7.056-13.062c-0.823-1.523-2.67-2.177-4.106-1.452l-0.263,0.133
				c-1.436,0.726-1.937,2.564-1.114,4.088l7.056,13.062c0.823,1.523,2.671,2.177,4.106,1.452l0.264-0.133
				C370.796,509.855,371.297,508.016,370.474,506.492z"/>
			<path fill="#F1AE9B" d="M344.017,494.875c0,0,0.938,9.752,1.132,12.573c0.376,5.459,1.923,8.16,5.502,8.453l7.243-1.392
				c3.858-1.367,5.611-2.2,5.87-5.628l0.85-11.283c0.259-3.428-3.529-12.805-7.108-13.097l-7.335-0.93
				C346.59,483.279,344.275,491.447,344.017,494.875z"/>
			<path fill="#F1AE9B" d="M358.341,511.281l1.779,12.795c0.223,2.073,1.554,3.674,2.959,3.557l0,0
				c1.405-0.117,2.373-1.91,2.151-3.984l-1.78-12.795c-0.222-2.073-1.554-3.674-2.958-3.557l0,0
				C359.086,507.414,358.118,509.208,358.341,511.281z"/>
			<path fill="#F1AE9B" d="M352.587,514.69l1.779,12.794c0.223,2.074,1.554,3.675,2.959,3.558l0,0
				c1.405-0.118,2.373-1.911,2.151-3.985l-1.78-12.794c-0.222-2.074-1.554-3.675-2.959-3.557l0,0
				C353.333,510.823,352.364,512.616,352.587,514.69z"/>
			<path fill="#F1AE9B" d="M345.977,511.831l1.78,12.794c0.222,2.074,1.553,3.675,2.958,3.557l0,0
				c1.405-0.117,2.374-1.91,2.151-3.984l-1.779-12.794c-0.222-2.074-1.554-3.675-2.959-3.557l0,0
				C346.723,507.964,345.755,509.757,345.977,511.831z"/>
		</g>
	</g>
	<g>
		<path fill="#F1AE9B" d="M445.94,318.257c0,0,10.57,31.247,11.681,70.501c0.855,30.223,2.113,100.28,2.113,100.28l13.674-0.279
			c0,0,4.195-40.589,3.979-96.466c-0.217-55.878-15.682-80.313-21.515-82.234S445.428,311.565,445.94,318.257z"/>
		<g>
			<path fill="#F1AE9B" d="M449.665,506.492l7.056-13.062c0.822-1.523,2.67-2.177,4.105-1.452l0.264,0.133
				c1.436,0.726,1.938,2.564,1.114,4.088l-7.056,13.062c-0.823,1.523-2.671,2.177-4.106,1.452l-0.264-0.133
				C449.343,509.855,448.841,508.016,449.665,506.492z"/>
			<path fill="#F1AE9B" d="M476.122,494.875c0,0-0.937,9.752-1.131,12.573c-0.376,5.459-1.923,8.16-5.502,8.453l-7.243-1.392
				c-3.859-1.367-5.611-2.2-5.869-5.628l-0.852-11.283c-0.258-3.428,3.529-12.805,7.109-13.097l7.335-0.93
				C473.549,483.279,475.864,491.447,476.122,494.875z"/>
			<path fill="#F1AE9B" d="M461.799,511.281l-1.781,12.795c-0.221,2.073-1.553,3.674-2.957,3.557l0,0
				c-1.406-0.117-2.373-1.91-2.151-3.984l1.779-12.795c0.223-2.073,1.554-3.674,2.959-3.557l0,0
				C461.053,507.414,462.021,509.208,461.799,511.281z"/>
			<path fill="#F1AE9B" d="M467.553,514.69l-1.78,12.794c-0.222,2.074-1.554,3.675-2.958,3.558l0,0
				c-1.406-0.118-2.373-1.911-2.151-3.985l1.78-12.794c0.222-2.074,1.553-3.675,2.958-3.557l0,0
				C466.807,510.823,467.775,512.616,467.553,514.69z"/>
			<path fill="#F1AE9B" d="M474.162,511.831l-1.779,12.794c-0.223,2.074-1.555,3.675-2.959,3.557l0,0
				c-1.406-0.117-2.373-1.91-2.151-3.984l1.78-12.794c0.223-2.074,1.554-3.675,2.959-3.557l0,0
				C473.416,507.964,474.385,509.757,474.162,511.831z"/>
		</g>
	</g>
	<g>
		<ellipse fill="#FFFFFF" cx="411.011" cy="332.79" rx="2.147" ry="2.052"/>
		<ellipse fill="#FFFFFF" cx="411.011" cy="361.585" rx="2.147" ry="2.052"/>
		<ellipse fill="#FFFFFF" cx="411.011" cy="390.381" rx="2.147" ry="2.052"/>
		<ellipse fill="#FFFFFF" cx="411.011" cy="419.177" rx="2.147" ry="2.052"/>
		<ellipse fill="#FFFFFF" cx="411.011" cy="447.973" rx="2.147" ry="2.052"/>
	</g>
	<path fill="#244689" d="M388.484,287.72l-10.915,3.945c-14.253,5.193-24.916,17.241-28.338,32.02l-6.091,26.305l30.526,6.316
		L388.484,287.72z"/>
	<path fill="#244689" d="M430.362,288.717l11.095,4.042c14.253,5.193,24.916,17.241,28.339,32.02l6.092,26.305l-30.527,6.316
		L430.362,288.717z"/>
	<path opacity="0.1" d="M276.431,738.484h574.716c9.887,0,17.9-8.015,17.9-17.901l0,0c0-9.887-8.014-17.9-17.9-17.9H276.431
		c-9.887,0-17.901,8.014-17.901,17.9l0,0C258.529,730.47,266.544,738.484,276.431,738.484z"/>
	<g>
		<path fill="#D26552" d="M253.557,331.47l-2.708-4.801c-3.663-6.494-10.352-10.704-17.791-11.2l0,0
			c-7.464-0.498-14.675,2.812-19.163,8.797l0,0c-0.354,0.473-0.699,0.952-1.034,1.437C206.492,334.929,204,350,208.666,372
			l8.847,56.164L247,432.333l9.391-89.063C256.565,339.149,255.583,335.063,253.557,331.47z"/>
		<g>
			<g>
				<g>
					<path fill="#FFC7B0" d="M355.314,494.231l13.772-3.981c1.005-0.29,1.59-1.351,1.299-2.356l0,0
						c-0.29-1.006-1.351-1.591-2.356-1.3l-13.771,3.98c-1.006,0.291-1.591,1.352-1.3,2.357l0,0
						C353.248,493.938,354.309,494.522,355.314,494.231z"/>
					<path fill="#FFC7B0" d="M360.257,497.478l11.057-3.196c1.006-0.291,1.591-1.352,1.3-2.357l0,0
						c-0.291-1.006-1.352-1.591-2.357-1.3L359.2,493.82c-1.005,0.291-1.59,1.352-1.3,2.357l0,0
						C358.19,497.184,359.251,497.769,360.257,497.478z"/>
					<path fill="#FFC7B0" d="M358.257,502.726l13.088-3.783c1.005-0.291,1.591-1.352,1.3-2.357l0,0
						c-0.291-1.006-1.352-1.591-2.357-1.3l-13.088,3.783c-1.005,0.291-1.59,1.352-1.299,2.357l0,0
						C356.191,502.432,357.251,503.017,358.257,502.726z"/>
				</g>
				<path fill="#FFC7B0" d="M360.93,489.85c-0.148,0.037-1.874,0.227-3.746,0.426c-3.23,0.344-6.334,1.454-9.051,3.234l-5.205,3.41
					c0,0,4.337,9.025,4.784,9.051c10.921,0.611,13.988-4.692,13.988-4.692L360.93,489.85z"/>
			</g>
			<g>
				<path fill="#FFC7B0" d="M266.698,454.181c0,0,6.4,17.13,12.869,31.056c1.802,3.864,3.604,7.48,5.271,10.42
					c0.487,0.851,0.983,1.68,1.505,2.474c6.457,10.046,15.116,15.65,27.366,14.138c0.112-0.015,36.069-6.133,36.069-6.133
					l-2.068-12.471l-37.194,3.218c-4.029,0.55-9.981-5.079-12.565-8.908c-0.202-0.296-0.382-0.584-0.54-0.854
					c-1.222-2.105-2.557-4.703-3.96-7.603c-8.392-17.423-18.953-45.959-18.953-45.959L266.698,454.181z"/>
			</g>
		</g>
		<path fill="#FFBD48" d="M271.402,422.028c0.745,1.116,17.857,34.598,17.857,34.598l-13.393,12.277L271.402,422.028z"/>
		<g>
			<path fill="#6C1A48" d="M277.418,590.655l-80.583,7.999L167.26,448.543l45.589-0.251c20.057-0.071,37.411,13.946,41.56,33.569
				L277.418,590.655z"/>
			<path fill="#F14747" d="M175.159,591.631l-17.729-131.353c-0.79-5.853,3.352-11.287,9.204-12.076l0,0
				c5.852-0.79,11.287,3.352,12.076,9.204l17.729,131.354c0.79,5.852-3.353,11.285-9.204,12.075l0,0
				C181.384,601.625,175.949,597.483,175.159,591.631z"/>
			<g>
				<g>
					<rect x="235.875" y="609.625" fill="#394679" width="12.489" height="73.66"/>
					<path fill="#0A194D" d="M248.364,613.912v16.646l-12.489-4.832v-11.27C239.001,614.31,245.016,614.059,248.364,613.912z"/>
				</g>
				<path fill="#394679" d="M271.054,615.581h-55.803c-3.069,0-5.581-2.512-5.581-5.581l0,0c0-3.068,2.511-5.58,5.581-5.58h55.803
					c3.069,0,5.58,2.512,5.58,5.58l0,0C276.634,613.069,274.123,615.581,271.054,615.581z"/>
				<path fill="#6C1A48" d="M298.365,608.885h-64.14c-7.674,0-13.952-6.279-13.952-13.953l0,0c0-7.674,6.278-13.953,13.952-13.953
					h64.14c7.674,0,13.953,6.279,13.953,13.953l0,0C312.318,602.605,306.039,608.885,298.365,608.885z"/>
				<path fill="#F14747" d="M242.003,609.257h-51.304c-7.674,0-13.953-6.279-13.953-13.953l0,0c0-7.675,6.279-13.953,13.953-13.953
					h51.304c7.675,0,13.954,6.278,13.954,13.953l0,0C255.957,602.978,249.678,609.257,242.003,609.257z"/>
				<g>
					<g>
						<path fill="#0A194D" d="M295.05,707.842h-7.813c0-9.333-7.593-16.927-16.927-16.927h-56.919
							c-9.333,0-16.928,7.594-16.928,16.927h-7.812c0-13.641,11.098-24.739,24.739-24.739h56.919
							C283.951,683.103,295.05,694.201,295.05,707.842z"/>
					</g>
					<rect x="232.921" y="671.384" fill="#0A194D" width="18.229" height="11.905"/>
				</g>
				<g>
					<circle fill="#0A194D" cx="192.26" cy="715.396" r="6.489"/>
					<path fill="#394679" d="M201.618,714.824h-17.76v-1.972c0-4.717,3.823-8.54,8.539-8.54h0.681c4.717,0,8.54,3.823,8.54,8.54
						V714.824z"/>
					<circle fill="#0A194D" cx="291.51" cy="715.396" r="6.489"/>
					<path fill="#394679" d="M300.868,714.824h-17.76v-1.972c0-4.717,3.823-8.54,8.54-8.54h0.681c4.716,0,8.54,3.823,8.54,8.54
						V714.824z"/>
				</g>
				<rect x="237.233" y="685.521" fill="#0A194D" width="10.341" height="23.437"/>
				<g>
					<circle fill="#0A194D" cx="242.622" cy="715.396" r="6.489"/>
					<path fill="#394679" d="M251.98,714.824H234.22v-1.972c0-4.717,3.824-8.54,8.54-8.54h0.681c4.717,0,8.54,3.823,8.54,8.54
						V714.824z"/>
				</g>
			</g>
		</g>
		<path fill="#072859" d="M266.661,598.99l-0.462-0.186C266.332,599.104,266.661,598.99,266.661,598.99z"/>
		<path fill="#072859" d="M266.661,598.99l-0.462-0.186C266.332,599.104,266.661,598.99,266.661,598.99z"/>
		<path fill="#1C1C2D" d="M218.947,535.495l0.583,23.926c0.32,13.14,5.555,24.064,22.296,24.623l43.526,5.58v-26.228l-5.58-17.857
			L218.947,535.495z"/>
		<g>
			<g>
				<path fill="#848383" d="M318.667,720.54l45.371,1.224c2.706,0.073,4.956-2.109,5.028-4.875l0,0
					c0.055-2.13-1.214-4.063-3.163-4.816l-22.241-8.609l-24.552-0.05L318.667,720.54z"/>
				<path fill="#0A194D" d="M364.875,723.075l-45.899-0.89l0.063-3.365l49.23,0.955l-0.001,0.033
					C368.233,721.648,366.713,723.111,364.875,723.075z"/>
			</g>
			<g>
				
					<line fill="none" stroke="#0A194D" stroke-width="1.1138" stroke-linecap="round" stroke-miterlimit="10" x1="342.402" y1="710.234" x2="347.96" y2="704.517"/>
				
					<line fill="none" stroke="#0A194D" stroke-width="1.1138" stroke-linecap="round" stroke-miterlimit="10" x1="346.361" y1="711.994" x2="351.918" y2="706.275"/>
				
					<line fill="none" stroke="#0A194D" stroke-width="1.1138" stroke-linecap="round" stroke-miterlimit="10" x1="350.14" y1="714.319" x2="356.397" y2="707.834"/>
			</g>
			<g>
				<path fill="#1C1C2D" d="M318.72,705.734c2.692-45.25,4.415-97.982,0.891-106.455c-3.615-5.261-27.003-10.771-49.154-16.898
					l4.666-30.518c17.857,2.791,60.704,16.896,69.94,32.738c3.899,6.687,5.188,30.641,3.362,76.781
					c-0.958,24.167-2.137,43.099-2.137,43.099L318.72,705.734z"/>
			</g>
		</g>
		<g>
			<g>
				<path fill="#9C9694" d="M285.185,721.099l45.371,1.223c2.705,0.073,4.956-2.109,5.028-4.875l0,0
					c0.055-2.13-1.214-4.062-3.163-4.816l-22.241-8.609l-24.552-0.05L285.185,721.099z"/>
				<path fill="#0A194D" d="M331.393,723.633l-45.899-0.889l0.063-3.365l49.229,0.954v0.034
					C334.751,722.206,333.231,723.669,331.393,723.633z"/>
			</g>
			<g>
				
					<line fill="none" stroke="#0A194D" stroke-width="1.1138" stroke-linecap="round" stroke-miterlimit="10" x1="308.921" y1="710.793" x2="314.478" y2="705.074"/>
				
					<line fill="none" stroke="#0A194D" stroke-width="1.1138" stroke-linecap="round" stroke-miterlimit="10" x1="312.879" y1="712.552" x2="318.437" y2="706.833"/>
				
					<line fill="none" stroke="#0A194D" stroke-width="1.1138" stroke-linecap="round" stroke-miterlimit="10" x1="316.658" y1="714.877" x2="322.915" y2="708.393"/>
			</g>
			<g>
				<path fill="#25253A" d="M285.238,706.293c2.691-45.251,4.415-97.982,0.89-106.455c-3.282-3.321-29.441-9.608-51.063-15.892
					c-8.199-2.383-14.217-9.378-15.36-17.84l-1.13-13.87l23.809-1.116c17.857,2.79,59.96,18.197,69.196,34.04
					c3.899,6.687,5.189,30.64,3.362,76.78c-0.957,24.167-2.136,43.099-2.136,43.099L285.238,706.293z"/>
			</g>
		</g>
		<path fill="#FFBD48" d="M281.73,548.85l-44.82,1.92l-18.771,0.811h-0.08l-5.49-92.08c-0.569-12.53,0.74-21.87,3.051-28.83
			c6.78-20.54,22.21-20.37,23.71-20.37l16.229,0.2c13.771,0,24.45,23.33,25.82,47.29l0.24,62.82l0.09,21.95L281.73,548.85z"/>
		<path fill="#F4A22A" d="M281.73,548.85l-44.82,1.92l-18.771,0.811h-0.08l-5.49-92.08c-0.569-12.53,0.74-21.87,3.051-28.83
			l8.71,13.33L240,495.67l26,12.66l15.62,12.28l0.09,21.95L281.73,548.85z"/>
	</g>
	<line fill="#394679" x1="771.375" y1="704.393" x2="771.375" y2="709.587"/>
	<rect x="630.286" y="578.052" fill="#0A194D" width="68.056" height="13.545"/>
	<rect x="628.306" y="531.991" fill="#716F82" width="15.304" height="188.999"/>
	<rect x="685.295" y="531.991" fill="#B1AEC1" width="15.303" height="188.999"/>
	<rect x="253.456" y="579.196" fill="#716F82" width="64.628" height="13.544"/>
	<rect x="252.112" y="532.083" fill="#716F82" width="15.304" height="188.999"/>
	<rect x="307.774" y="531.991" fill="#B1AEC1" width="15.304" height="188.999"/>
	<path fill="#D26552" d="M233.241,532.988h213.47v-11.034c0-3.341-2.708-6.048-6.047-6.048H239.288c-3.34,0-6.047,2.707-6.047,6.048
		V532.988z"/>
	<g>
		<path fill="#FC9F7B" d="M718.58,521.95v11.04H295.46v-11.04c0-3.34,2.71-6.04,6.05-6.04H712.53
			C715.87,515.91,718.58,518.61,718.58,521.95z"/>
		<path fill="#D26552" d="M675,515.91v17.08H559.5c-2.03-4.45-5.311-11.721-7.641-17.08H675z"/>
	</g>
	<g>
		<path fill="#DDDDDD" d="M571.841,516.49h-86.927c-0.484-0.695-0.867-1.48-1.098-2.327l-19.449-70.208
			c-0.937-3.344,1.582-6.657,5.057-6.657h76.482c2.357,0,4.422,1.581,5.057,3.847L571.841,516.49z"/>
		<path fill="#2D2D3A" d="M494.423,517.122h81.56l-21.746-78.481c-0.631-2.27-2.697-3.84-5.053-3.84h-76.412
			c-3.467,0-5.98,3.306-5.053,6.647l19.436,70.145C488.059,514.86,491.033,517.122,494.423,517.122z"/>
		<path fill="#2F558C" d="M472.014,444.539l15.884,57.195l3.333,11.979h80.914l-3.323-11.979l-16.612-59.797
			c-0.581-2.102-2.503-3.553-4.684-3.553h-70.827C473.486,438.384,471.154,441.446,472.014,444.539z"/>
		<g>
			<g>
				<polygon fill="#ECEEF0" points="519.678,446.163 544.582,446.163 544.027,444.412 519.124,444.412 				"/>
				<polygon fill="#EA5444" points="497.088,446.163 508.88,446.163 508.326,444.412 496.533,444.412 				"/>
				<polygon fill="#A29FB0" points="480.063,446.163 491.855,446.163 491.301,444.412 479.51,444.412 				"/>
				<polygon fill="#6E89C4" points="493.249,446.163 496.039,446.163 495.484,444.412 492.695,444.412 				"/>
				<polygon fill="#A29FB0" points="510.246,446.163 518.512,446.163 517.956,444.412 509.691,444.412 				"/>
			</g>
			<g>
				<polygon fill="#DDDDDD" points="537.021,476.046 525.229,476.046 524.674,474.294 536.465,474.294 				"/>
				<polygon fill="#FFC543" points="554.045,476.046 542.253,476.046 541.699,474.294 553.49,474.294 				"/>
				<polygon fill="#6E89C4" points="540.859,476.046 538.07,476.046 537.516,474.294 540.305,474.294 				"/>
			</g>
			<g>
				<polygon fill="#EA5444" points="537.609,453.634 546.947,453.634 546.394,451.883 537.055,451.883 				"/>
				<polygon fill="#6E89C4" points="515.02,453.634 519.027,453.634 518.474,451.883 514.465,451.883 				"/>
				<polygon fill="#EA5444" points="482.43,453.634 502.004,453.634 501.449,451.883 481.875,451.883 				"/>
				<polygon fill="#6E89C4" points="503.397,453.634 513.97,453.634 513.415,451.883 502.844,451.883 				"/>
				<polygon fill="#6E89C4" points="520.394,453.634 536.441,453.634 535.887,451.883 519.839,451.883 				"/>
			</g>
			<g>
				<polygon fill="#313D6E" points="551.803,498.457 561.143,498.457 560.587,496.706 551.248,496.706 				"/>
			</g>
			<g>
				<polygon fill="#DDDDDD" points="539.975,461.104 549.314,461.104 548.76,459.354 539.42,459.354 				"/>
				<polygon fill="#DDDDDD" points="524.733,461.104 534.072,461.104 533.518,459.354 524.178,459.354 				"/>
				<polygon fill="#6E89C4" points="487.387,461.104 503.436,461.104 502.881,459.354 486.832,459.354 				"/>
			</g>
			<g>
				<polygon fill="#6E89C4" points="551.68,468.575 535.631,468.575 535.077,466.823 551.125,466.823 				"/>
			</g>
		</g>
		<polygon fill="#2D2D3A" points="487.897,501.733 491.23,513.713 572.145,513.713 568.821,501.733 		"/>
		<g>
			<path fill="#85818E" d="M531.51,517.309h99.359c2.322,0,4.223-1.9,4.223-4.224l0,0c0-2.322-1.9-4.223-4.223-4.223H531.51
				c-2.323,0-4.224,1.9-4.224,4.223l0,0C527.286,515.408,529.187,517.309,531.51,517.309z"/>
		</g>
		<polygon opacity="0.55" fill="#C5CBED" points="481.852,434.801 533,508.667 564.244,508.667 513.098,434.801 		"/>
		<g>
			<g>
				<path fill="#DDDDDD" d="M493.947,517.256h58.93c2.381,0,4.328-1.947,4.328-4.328l0,0c0-2.38-1.947-4.327-4.328-4.327h-58.93
					c-2.381,0-4.327,1.947-4.327,4.327l0,0C489.62,515.309,491.566,517.256,493.947,517.256z"/>
			</g>
			<g>
				<rect x="514.51" y="511.4" fill="#081344" width="8.212" height="2.464"/>
				<rect x="525.186" y="511.4" fill="#081344" width="5.955" height="2.464"/>
			</g>
		</g>
	</g>
	<g>
		<g>
			<path fill="#F14747" d="M404.637,494.286v22.486h18.784v-22.486c0-0.989-0.806-1.796-1.796-1.796h-15.192
				C405.443,492.49,404.637,493.297,404.637,494.286z"/>
			<g>
				<path fill="#F14747" d="M423.189,512.925c0.245-0.141,6.012-3.519,6.526-9.435c0.196-2.255-0.658-3.652-1.408-4.428
					c-2.064-2.132-5.494-2.009-5.878-1.988l0.15,2.744c0.696-0.032,2.746,0.11,3.758,1.162c0.516,0.536,0.725,1.279,0.639,2.271
					c-0.392,4.502-5.109,7.262-5.157,7.289L423.189,512.925z"/>
			</g>
		</g>
		<path fill="#F14747" d="M413.415,516.772h10.006v-22.486c0-0.989-0.806-1.796-1.796-1.796h-0.604
			c-0.027,1.173-0.348,10.144-2.868,16.604C415.962,514.72,414.011,516.379,413.415,516.772z"/>
		<g>
			<path opacity="0.37" fill="#6C1A48" d="M428.305,499.061c-1.466-1.512-3.62-1.887-4.884-1.979v-2.795
				c0-0.99-0.806-1.796-1.795-1.796h-0.605c-0.027,1.173-0.348,10.144-2.868,16.604c-2.19,5.626-4.142,7.285-4.737,7.679h10.006
				v-3.995c1.118-0.696,5.837-3.968,6.295-9.291C429.909,501.232,429.057,499.84,428.305,499.061z M426.977,503.249
				c-0.248,2.785-2.135,4.902-3.556,6.111v-9.511c0.907,0.082,2.181,0.375,2.914,1.127
				C426.857,501.517,427.059,502.259,426.977,503.249z"/>
		</g>
	</g>
	<g>
		<g>
			<g>
				<path fill="#DDDDDD" d="M425.342,517.529h-67.229c-4.398,0-7.304-4.572-5.438-8.555l23.448-50.021
					c2.044-4.361,6.426-7.147,11.243-7.147h61.896c3.207,0,5.325,3.334,3.965,6.237L425.342,517.529z"/>
				<g>
					<g>
						<path fill="#DADAE0" d="M358.361,517.7h-47.937c-1.936,0-3.52-1.584-3.52-3.521l0,0c0-1.936,1.584-3.52,3.52-3.52h47.937
							c1.937,0,3.52,1.584,3.52,3.52l0,0C361.881,516.116,360.298,517.7,358.361,517.7z"/>
					</g>
					<g>
						<rect x="334.289" y="512.993" fill="#FFFFFF" width="6.846" height="2.054"/>
						<rect x="327.271" y="512.993" fill="#FFFFFF" width="4.963" height="2.054"/>
					</g>
				</g>
				<path fill="#A29FB0" d="M424.33,517.529h-67.387c-2.42,0-4.018-2.515-2.991-4.705l25.252-53.871
					c2.044-4.361,6.426-7.147,11.243-7.147h61.895c3.207,0,5.326,3.334,3.965,6.237l-26.147,55.78
					C429.1,516.084,426.828,517.529,424.33,517.529z"/>
			</g>
			
				<ellipse transform="matrix(0.9196 0.393 -0.393 0.9196 223.9843 -120.31)" fill="#FFFFFF" cx="405.831" cy="486.893" rx="4.108" ry="7.36"/>
		</g>
		<g>
			<g>
				<g>
					<path fill="#FFC7B0" d="M302.05,504.195l14.167-2.196c1.034-0.16,1.75-1.138,1.59-2.172l0,0
						c-0.161-1.035-1.139-1.75-2.173-1.59l-14.167,2.196c-1.034,0.16-1.75,1.138-1.589,2.173l0,0
						C300.038,503.641,301.016,504.355,302.05,504.195z"/>
					<path fill="#FFC7B0" d="M306.54,508.044l11.375-1.764c1.035-0.16,1.75-1.138,1.589-2.172l0,0
						c-0.16-1.035-1.138-1.75-2.172-1.59l-11.375,1.764c-1.035,0.16-1.75,1.138-1.589,2.173l0,0
						C304.527,507.489,305.505,508.204,306.54,508.044z"/>
					<path fill="#FFC7B0" d="M303.888,512.995l13.464-2.087c1.034-0.16,1.75-1.139,1.589-2.173l0,0
						c-0.16-1.034-1.138-1.75-2.172-1.59l-13.463,2.088c-1.035,0.16-1.75,1.138-1.589,2.172l0,0
						C301.876,512.44,302.854,513.155,303.888,512.995z"/>
				</g>
				<path fill="#FFC7B0" d="M308.178,500.564c-0.152,0.017-1.888-0.015-3.769-0.056c-3.249-0.069-6.467,0.637-9.39,2.057
					l-5.596,2.72c0,0,3.153,9.504,3.593,9.586c10.756,1.996,14.471-2.873,14.471-2.873L308.178,500.564z"/>
			</g>
			<g>
				<path fill="#FFC7B0" d="M219.252,453.191c0,0,4.167,17.807,8.813,32.441c1.295,4.063,2.623,7.879,3.902,11.007
					c0.375,0.905,0.761,1.79,1.179,2.645c5.125,10.786,13.001,17.447,25.344,17.505c0.113,0.001,36.556-1.491,36.556-1.491
					l-0.464-12.634l-37.302-1.541c-4.066,0.032-9.254-6.308-11.329-10.436c-0.163-0.319-0.305-0.628-0.427-0.916
					c-0.945-2.243-1.938-4.99-2.961-8.045c-6.106-18.349-12.95-47.998-12.95-47.998L219.252,453.191z"/>
			</g>
		</g>
		<path fill="#FFBD48" d="M232.711,422.4l8.186,36.458l-23.438,7.068c0,0-1.302-4.594-2.292-9.927
			c-0.991-5.333-2.111-19.036,0.453-25.33C218.061,424.68,225.91,423.621,232.711,422.4z"/>
	</g>
	<g>
		<g>
			<g>
				<path fill="#884C2E" d="M668.446,732.79l-49.325-1.021c-2.941-0.062-5.277-2.495-5.216-5.437l0,0
					c0.046-2.265,1.522-4.253,3.677-4.955l24.58-8.007l26.662,1.203L668.446,732.79z"/>
				<path fill="#0A194D" d="M618.104,733.118l49.925,1.404l0.1-3.577l-53.502-1.506l0,0
					C614.571,731.415,616.129,733.063,618.104,733.118z"/>
			</g>
			<g>
				
					<line fill="none" stroke="#0A194D" stroke-width="1.1846" stroke-linecap="round" stroke-miterlimit="10" x1="642.563" y1="720.599" x2="636.945" y2="714.246"/>
				
					<line fill="none" stroke="#0A194D" stroke-width="1.1846" stroke-linecap="round" stroke-miterlimit="10" x1="638.27" y1="722.27" x2="632.652" y2="715.916"/>
				
					<line fill="none" stroke="#0A194D" stroke-width="1.1846" stroke-linecap="round" stroke-miterlimit="10" x1="634.139" y1="724.55" x2="627.816" y2="717.348"/>
			</g>
			<g>
				<path fill="#0A0A2C" d="M670.749,715.766c-2.862-48.123-2.09-92.614,1.659-101.625c3.844-5.595,33.813-17.721,63.768-19.028
					l-14.018-30.602c-39.287,1.975-67.371,16.715-77.193,33.563c-4.146,7.111-7.748,21.454-5.806,70.524
					c1.018,25.701,2.272,45.835,2.272,45.835L670.749,715.766z"/>
			</g>
			<g>
				<path fill="#A36440" d="M625.118,733.171l-49.335,0.37c-2.941,0.022-5.344-2.345-5.365-5.286l0,0
					c-0.018-2.266,1.4-4.294,3.533-5.057l24.347-8.698l26.685,0.45L625.118,733.171z"/>
				<path fill="#0A194D" d="M574.807,734.919l49.943-0.005v-3.579l-53.523,0.005l0,0
					C571.227,733.316,572.83,734.919,574.807,734.919z"/>
			</g>
			<g>
				
					<line fill="none" stroke="#0A194D" stroke-width="1.1846" stroke-linecap="round" stroke-miterlimit="10" x1="598.901" y1="721.715" x2="593.107" y2="715.522"/>
				
					<line fill="none" stroke="#0A194D" stroke-width="1.1846" stroke-linecap="round" stroke-miterlimit="10" x1="594.657" y1="723.506" x2="588.863" y2="717.313"/>
				
					<line fill="none" stroke="#0A194D" stroke-width="1.1846" stroke-linecap="round" stroke-miterlimit="10" x1="590.592" y1="725.902" x2="584.07" y2="718.881"/>
			</g>
			<g>
				<path fill="#25253A" d="M626.92,715.766c-2.862-48.123-2.09-92.614,1.658-101.625c3.846-5.595,33.814-17.721,63.77-19.028
					l-14.018-30.602c-39.288,1.975-67.371,16.715-77.195,33.563c-4.146,7.111-7.747,21.454-5.805,70.524
					c1.018,25.701,2.271,45.835,2.271,45.835L626.92,715.766z"/>
			</g>
			<path fill="#25253A" d="M669.139,573.315c0,5.39,1.918,10.329,5.105,14.179c4.074,4.939,10.258,8.091,17.176,8.091h37.444
				c1.113,0,2.202-0.083,3.269-0.248c2.748-0.392,5.332-1.304,7.652-2.618c0.414-0.225,0.818-0.474,1.209-0.734
				c6.1-3.968,10.139-10.852,10.139-18.669l-0.686-11.882l-80.658-0.698L669.139,573.315z"/>
			<g>
				<g>
					<g>
						<path fill="#FFC7B0" d="M643.414,509.857l-19.3-3.085c-1.409-0.226-2.378-1.563-2.153-2.973l0,0
							c0.226-1.409,1.563-2.378,2.973-2.152l19.301,3.085c1.408,0.225,2.378,1.563,2.152,2.972l0,0
							C646.162,509.114,644.824,510.083,643.414,509.857z"/>
						<path fill="#FFC7B0" d="M637.27,515.076l-15.497-2.478c-1.409-0.226-2.378-1.563-2.153-2.973l0,0
							c0.226-1.409,1.563-2.378,2.973-2.152l15.497,2.477c1.409,0.226,2.378,1.563,2.153,2.973l0,0
							C640.016,514.332,638.679,515.301,637.27,515.076z"/>
						<path fill="#FFC7B0" d="M640.852,521.843l-18.342-2.932c-1.409-0.226-2.379-1.563-2.152-2.973l0,0
							c0.225-1.409,1.563-2.378,2.972-2.153l18.343,2.933c1.409,0.225,2.377,1.563,2.152,2.972l0,0
							C643.6,521.1,642.262,522.068,640.852,521.843z"/>
					</g>
					<path fill="#FFC7B0" d="M635.084,504.867c0.207,0.024,2.574-0.008,5.139-0.051c4.43-0.074,8.814,0.909,12.789,2.864
						l7.613,3.744c0,0-4.361,12.938-4.961,13.046c-14.677,2.652-19.711-4.011-19.711-4.011L635.084,504.867z"/>
				</g>
				<rect x="646.446" y="504.816" fill="#FFFFFF" width="6.515" height="21.174"/>
			</g>
			<g>
				<path fill="#6C1A48" d="M695.654,528.288c15.361,0,29.404-8.966,35.857-22.93l0.318-0.69l20.105-61.394l-24.768-8.111
					l-19.591,59.83c-2.324,4.464-6.999,7.289-12.055,7.233l-42.709-0.423l-0.258,26.06l42.708,0.423
					C695.394,528.287,695.525,528.288,695.654,528.288z"/>
			</g>
			<g>
				<g>
					<path fill="#FFC7B0" d="M556.637,501.141c1.596-2.846,3.994-5.176,6.921-6.618c0.022-0.012,0.046-0.023,0.069-0.034
						c3.98-1.944,8.367-2.913,12.797-2.827l8.481,0.165c0,0,1.705,20.107,1.595,19.507c-0.219-1.194-8.167-2.389-29.693-2.389
						c-2.037,0-3.346-2.143-2.35-3.92L556.637,501.141z"/>
				</g>
				<rect x="581.277" y="491.273" fill="#FFFFFF" width="8.095" height="21.688"/>
			</g>
			<path fill="#F14747" d="M753.811,579.83c0,0-8.351,0.92-19.641,1.4c-2.05,0.1-4.21,0.17-6.42,0.22
				c-13.04,0.33-28.311-0.11-39.16-2.92c-6.59-1.72-11.59-3.5-15.32-5.12c-1.529-0.67-2.84-1.3-3.97-1.9
				c-4.14-2.18-5.739-3.79-5.95-4.01c-0.01-0.02-0.02-0.03-0.02-0.03l-0.62-69.649l-0.47-54.7c0-21.56,17.479-39.04,39.04-39.04
				h13.2c2.31,0,4.58,0.2,6.779,0.58c2.28,0.4,4.49,1,6.62,1.78c0.01,0,0.01,0.01,0.021,0.01c14.949,5.48,25.619,19.84,25.619,36.67
				L753.811,579.83z"/>
			<path opacity="0.33" fill="#6C1A48" d="M753.811,579.83c0,0-8.351,0.92-19.641,1.4c-2.05,0.1-4.21,0.17-6.42,0.22
				c-6.96,0.18-14.57,0.13-21.79-0.38l-0.32-147.22c0-11.18-4.149-21.41-11.01-29.2c2.16-0.38,4.38-0.57,6.65-0.57h13.2
				c2.31,0,4.58,0.2,6.779,0.58c2.28,0.4,4.49,1,6.62,1.78c0.01,0,0.01,0.01,0.021,0.01c14.949,5.48,25.619,19.84,25.619,36.67
				L753.811,579.83z"/>
			<path opacity="0.48" fill="#6C1A48" d="M687.67,443.67c-1.53,6.63-10.67,47.811-14.88,66.78l-0.25-32.33c0,0-1.4,5.5-5.25,12.52
				l-1.96-16.97C665.33,473.67,689.67,435,687.67,443.67z"/>
			<g>
				<g>
					<rect x="709.954" y="622.622" fill="#394679" width="13.179" height="73.271"/>
					<path fill="#0A194D" d="M709.954,626.887v16.559l13.179-4.807v-11.211C719.834,627.281,713.487,627.032,709.954,626.887z"/>
				</g>
				<path fill="#394679" d="M685.673,628.546h59.562c3.054,0,5.551-2.497,5.551-5.551l0,0c0-3.053-2.497-5.551-5.551-5.551h-59.562
					c-3.054,0-5.552,2.498-5.552,5.551l0,0C680.121,626.049,682.619,628.546,685.673,628.546z"/>
				<g>
					<g>
						<path fill="#0A194D" d="M661.215,722.95h8.244c0-9.284,8.014-16.837,17.862-16.837h60.065c9.85,0,17.862,7.553,17.862,16.837
							h8.245c0-13.568-11.713-24.608-26.107-24.608h-60.065C672.927,698.342,661.215,709.382,661.215,722.95z"/>
					</g>
					<rect x="707.014" y="684.054" fill="#0A194D" width="19.236" height="16.053"/>
				</g>
				<g>
					<ellipse fill="#0A194D" cx="769.686" cy="730.465" rx="6.848" ry="6.455"/>
					<path fill="#394679" d="M759.811,729.896h18.74v-1.707c0-4.832-3.916-8.749-8.748-8.749h-1.244
						c-4.832,0-8.748,3.917-8.748,8.749V729.896z"/>
					<ellipse fill="#0A194D" cx="664.95" cy="730.465" rx="6.849" ry="6.455"/>
					<path fill="#394679" d="M655.075,729.896h18.741v-1.707c0-4.832-3.918-8.749-8.75-8.749h-1.242
						c-4.832,0-8.749,3.917-8.749,8.749V729.896z"/>
				</g>
				<rect x="711.313" y="700.748" fill="#0A194D" width="10.913" height="23.313"/>
				<g>
					<ellipse fill="#0A194D" cx="716.54" cy="730.465" rx="6.849" ry="6.455"/>
					<path fill="#394679" d="M706.664,729.896h18.742v-1.707c0-4.832-3.918-8.749-8.75-8.749h-1.242c-4.832,0-8.75,3.917-8.75,8.749
						V729.896z"/>
				</g>
			</g>
			<path fill="#6C1A48" d="M821.476,480.277l-17.649,127.403c-1.072,7.748-7.576,13.593-15.395,13.837l-40.197,0.738l24.549-160.202
				l32.772-0.025C815.304,462.014,822.813,470.621,821.476,480.277z"/>
			<g>
				<path fill="#F14747" d="M629.318,516.442c15.361,0,29.404-8.966,35.858-22.93l28.95-62.647l-23.656-10.932L641.52,482.58
					c-2.214,4.791-7.006,7.865-12.332,7.801l-42.709-0.422l-0.258,26.059l42.709,0.423
					C629.059,516.441,629.189,516.442,629.318,516.442z"/>
			</g>
			<path fill="#F14747" d="M647.967,622.256h103.021c7.634,0,13.879-6.246,13.879-13.88l0,0c0-7.634-6.245-13.879-13.879-13.879
				H647.967c-7.633,0-13.879,6.245-13.879,13.879l0,0C634.088,616.01,640.334,622.256,647.967,622.256z"/>
			<rect x="687.53" y="395.193" fill="#FFFFFF" width="40.275" height="11.253"/>
			<path fill="#F14747" d="M766.543,604.724l18.707-130.658c0.834-5.82-3.537-11.226-9.712-12.012l0,0
				c-6.175-0.785-11.909,3.334-12.743,9.155l-18.708,130.658c-0.833,5.82,3.537,11.226,9.712,12.012l0,0
				C759.975,614.664,763.17,619.029,766.543,604.724z"/>
			<path opacity="0.48" fill="#6C1A48" d="M673.27,573.41c-1.529-0.67-2.84-1.3-3.97-1.9c-4.14-2.18-5.739-3.79-5.95-4.01
				c-0.01-0.02-0.02-0.03-0.02-0.03l-0.62-69.649c7.37-10.04,9.83-19.7,9.83-19.7L673.27,573.41z"/>
		</g>
	</g>
	<g>
		<g>
			<path fill="#6075B0" d="M148.273,660.333v18.738h80.039c5.171,0,9.369-4.197,9.369-9.369c0-2.581-1.049-4.926-2.741-6.628
				c-1.703-1.691-4.047-2.741-6.627-2.741H148.273z"/>
			<path fill="#0A194D" d="M126.291,660.333v18.738h80.039c5.172,0,9.369-4.197,9.369-9.369c0-2.581-1.049-4.926-2.741-6.628
				c-1.703-1.691-4.047-2.741-6.628-2.741H126.291z"/>
			<path fill="#FFFFFF" d="M126.291,663.545v12.014h77.512c3.319,0,6.007-2.688,6.007-6.006c0-1.66-0.675-3.159-1.756-4.251
				c-1.092-1.082-2.591-1.757-4.251-1.757H126.291z"/>
		</g>
	</g>
	<g>
		<rect x="155.75" y="658.526" fill="#BF7847" width="124.892" height="80.094"/>
		<rect x="103.49" y="658.53" fill="#DD9762" width="124.89" height="80.09"/>
		<path fill="#2D2D3A" d="M178.148,680.925h-24.435c-3.174,0-5.77-2.596-5.77-5.769l0,0c0-3.174,2.596-5.77,5.77-5.77h24.435
			c3.174,0,5.77,2.596,5.77,5.77l0,0C183.918,678.329,181.322,680.925,178.148,680.925z"/>
		<path opacity="0.64" fill="#4F1B0A" d="M153.76,686.32c0-2.37-0.96-4.53-2.52-6.09c-1.57-1.561-3.72-2.53-6.101-2.53h-4.04
			c1.73-0.75,2.94-2.48,2.94-4.49v-12.35c0-0.851-0.21-1.641-0.59-2.33h-39.96V683v11.939v43.291h37.35c2.7,0,4.9-2.2,4.9-4.91
			V720.97c0-2.71-2.2-4.909-4.9-4.909h-1.53c1.07-0.9,1.76-2.23,1.76-3.74V699.97c0-2.71-2.189-4.909-4.899-4.909l-0.326-0.121
			h9.296C149.9,694.939,153.76,691.08,153.76,686.32z"/>
	</g>
	<g opacity="0.84">
		<g>
			<path fill="#AB7340" d="M100.114,718.475H39.847v-20.85h60.267c2.547,0,4.612,2.064,4.612,4.612v11.624
				C104.727,716.409,102.662,718.475,100.114,718.475z"/>
			<path fill="#AB7340" d="M97.895,717.136H39.847V698.94h58.047c2.183,0,3.952,1.77,3.952,3.952v10.291
				C101.846,715.366,100.077,717.136,97.895,717.136z"/>
		</g>
		<g>
			<path fill="#AB7340" d="M101.187,679.095H43.139V660.9h58.047c2.183,0,3.952,1.769,3.952,3.951v10.292
				C105.138,677.326,103.369,679.095,101.187,679.095z"/>
		</g>
		<g>
			<path fill="#AB7340" d="M104.503,738.227H44.236v-20.85h60.267c2.548,0,4.613,2.064,4.613,4.612v11.624
				C109.116,736.161,107.051,738.227,104.503,738.227z"/>
			<path fill="#AB7340" d="M102.284,736.888H44.236v-18.195h58.048c2.182,0,3.951,1.77,3.951,3.952v10.291
				C106.235,735.118,104.466,736.888,102.284,736.888z"/>
		</g>
		<g>
			<path fill="#AB7340" d="M53.701,681.046v16.213h58.282c4.475,0,8.106-3.632,8.106-8.106c0-2.233-0.907-4.262-2.371-5.735
				c-1.474-1.464-3.502-2.371-5.735-2.371H53.701z"/>
			<path fill="#AB7340" d="M53.701,683.825v10.395h56.095c2.872,0,5.197-2.325,5.197-5.197c0-1.436-0.583-2.733-1.52-3.678
				c-0.944-0.937-2.242-1.52-3.678-1.52H53.701z"/>
		</g>
		<g>
			<line fill="#AB7340" x1="42.545" y1="665.254" x2="102.897" y2="665.254"/>
			<line fill="#AB7340" x1="42.545" y1="668.729" x2="102.897" y2="668.729"/>
			<line fill="#AB7340" x1="42.545" y1="672.203" x2="102.897" y2="672.203"/>
			<line fill="#AB7340" x1="42.545" y1="675.678" x2="102.897" y2="675.678"/>
		</g>
		<g>
			<line fill="#AB7340" x1="39.802" y1="702.746" x2="100.154" y2="702.746"/>
			<line fill="#AB7340" x1="39.802" y1="706.221" x2="100.154" y2="706.221"/>
			<line fill="#AB7340" x1="39.802" y1="709.695" x2="100.154" y2="709.695"/>
			<line fill="#AB7340" x1="39.802" y1="713.17" x2="100.154" y2="713.17"/>
		</g>
		<g>
			<line fill="#AB7340" x1="44.374" y1="722.681" x2="104.727" y2="722.681"/>
			<line fill="#AB7340" x1="44.374" y1="726.155" x2="104.727" y2="726.155"/>
			<line fill="#AB7340" x1="44.374" y1="729.63" x2="104.727" y2="729.63"/>
			<line fill="#AB7340" x1="44.374" y1="733.105" x2="104.727" y2="733.105"/>
		</g>
	</g>
	<g>
		<g>
			<path fill="#6C1A48" d="M116.63,715.393H46.961v-24.102h69.669c2.945,0,5.333,2.387,5.333,5.332v13.438
				C121.962,713.005,119.575,715.393,116.63,715.393z"/>
			<path fill="#6C1A48" d="M91.26,715.393H21.538v-24.102H91.26c2.944,0,5.332,2.387,5.332,5.332v13.438
				C96.592,713.005,94.204,715.393,91.26,715.393z"/>
			<path fill="#FFFFFF" d="M88.694,713.846H21.538v-21.034h67.157c2.522,0,4.568,2.046,4.568,4.568v11.897
				C93.262,711.8,91.217,713.846,88.694,713.846z"/>
			<rect x="99.935" y="698.901" fill="#FFFFFF" width="19.397" height="8.563"/>
			<rect x="101.825" y="700.805" fill="#0A194D" width="15.856" height="1.744"/>
			<rect x="101.825" y="703.658" fill="#0A194D" width="15.856" height="1.745"/>
		</g>
		<g>
			<path fill="#6C1A48" d="M119.857,672.862H50.188V648.76h69.669c2.945,0,5.333,2.388,5.333,5.332v13.438
				C125.19,670.475,122.803,672.862,119.857,672.862z"/>
			<path fill="#6C1A48" d="M94.487,672.862H24.131V648.76h70.356c2.944,0,5.332,2.388,5.332,5.332v13.438
				C99.819,670.475,97.432,672.862,94.487,672.862z"/>
			<path fill="#FFFFFF" d="M91.921,671.314H24.131v-21.033h67.791c2.523,0,4.568,2.045,4.568,4.568v11.896
				C96.489,669.27,94.444,671.314,91.921,671.314z"/>
			<rect x="103.163" y="656.371" fill="#FFFFFF" width="19.396" height="8.563"/>
			<rect x="105.052" y="658.273" fill="#0A194D" width="15.857" height="1.744"/>
			<rect x="105.052" y="661.128" fill="#0A194D" width="15.857" height="1.744"/>
		</g>
		<g>
			<path fill="#0A194D" d="M121.704,738.227H52.035v-24.103h69.669c2.945,0,5.333,2.388,5.333,5.332v13.438
				C127.037,735.839,124.649,738.227,121.704,738.227z"/>
			<path fill="#0A194D" d="M96.333,738.227H26.664v-24.103h69.669c2.945,0,5.333,2.388,5.333,5.332v13.438
				C101.666,735.839,99.278,738.227,96.333,738.227z"/>
			<path fill="#FFFFFF" d="M93.768,736.679H26.664v-21.033h67.104c2.523,0,4.568,2.045,4.568,4.567v11.897
				C98.336,734.634,96.291,736.679,93.768,736.679z"/>
			<rect x="105.01" y="721.735" fill="#FFFFFF" width="19.396" height="8.563"/>
			<rect x="106.898" y="723.638" fill="#0A194D" width="15.856" height="1.744"/>
			<rect x="106.898" y="726.492" fill="#0A194D" width="15.856" height="1.744"/>
		</g>
		<g>
			<path fill="#D26552" d="M46.33,672.413v18.743h80.06c5.173,0,9.371-4.198,9.371-9.371c0-2.581-1.05-4.927-2.741-6.63
				c-1.703-1.692-4.049-2.742-6.63-2.742H46.33z"/>
			<path fill="#FC9F7B" d="M37.027,672.413v18.743h67.374c5.173,0,9.372-4.198,9.372-9.371c0-2.581-1.05-4.927-2.742-6.63
				c-1.703-1.692-4.048-2.742-6.63-2.742H37.027z"/>
			<path fill="#FFFFFF" d="M37.027,675.627v12.017h64.847c3.32,0,6.008-2.688,6.008-6.009c0-1.66-0.674-3.159-1.756-4.252
				c-1.093-1.082-2.592-1.756-4.252-1.756H37.027z"/>
		</g>
		<g>
			
				<line fill="none" stroke="#B0ACBF" stroke-width="1.2685" stroke-miterlimit="10" x1="24.131" y1="655.314" x2="93.899" y2="655.314"/>
			
				<line fill="none" stroke="#B0ACBF" stroke-width="1.2685" stroke-miterlimit="10" x1="24.131" y1="659.331" x2="93.899" y2="659.331"/>
			
				<line fill="none" stroke="#B0ACBF" stroke-width="1.2685" stroke-miterlimit="10" x1="24.131" y1="663.348" x2="93.899" y2="663.348"/>
			
				<line fill="none" stroke="#B0ACBF" stroke-width="1.2685" stroke-miterlimit="10" x1="24.131" y1="667.365" x2="93.899" y2="667.365"/>
		</g>
		<g>
			
				<line fill="none" stroke="#B0ACBF" stroke-width="1.2685" stroke-miterlimit="10" x1="21.538" y1="697.21" x2="91.307" y2="697.21"/>
			
				<line fill="none" stroke="#B0ACBF" stroke-width="1.2685" stroke-miterlimit="10" x1="21.538" y1="701.228" x2="91.307" y2="701.228"/>
			
				<line fill="none" stroke="#B0ACBF" stroke-width="1.2685" stroke-miterlimit="10" x1="21.538" y1="705.244" x2="91.307" y2="705.244"/>
			
				<line fill="none" stroke="#B0ACBF" stroke-width="1.2685" stroke-miterlimit="10" x1="21.538" y1="709.262" x2="91.307" y2="709.262"/>
		</g>
		<g>
			
				<line fill="none" stroke="#B0ACBF" stroke-width="1.2685" stroke-miterlimit="10" x1="26.823" y1="720.255" x2="96.592" y2="720.255"/>
			
				<line fill="none" stroke="#B0ACBF" stroke-width="1.2685" stroke-miterlimit="10" x1="26.823" y1="724.272" x2="96.592" y2="724.272"/>
			
				<line fill="none" stroke="#B0ACBF" stroke-width="1.2685" stroke-miterlimit="10" x1="26.823" y1="728.289" x2="96.592" y2="728.289"/>
			
				<line fill="none" stroke="#B0ACBF" stroke-width="1.2685" stroke-miterlimit="10" x1="26.823" y1="732.307" x2="96.592" y2="732.307"/>
		</g>
	</g>
	<rect x="551.125" y="240.02" fill="#D26552" width="211.064" height="16.236"/>
	<rect x="566.639" y="226.667" fill="#6C1A48" width="106.846" height="14.27"/>
	<rect x="532.725" y="226.667" fill="#F14747" width="106.846" height="14.27"/>
	<path fill="none" stroke="#0A194D" stroke-width="1.7821" stroke-miterlimit="10" d="M396.906,675.823v-23.509
		c0-4.845,3.927-8.771,8.771-8.771l0,0c4.845,0,8.772,3.927,8.772,8.771v29.123h15.087v-18.421c0-6.492-5.263-11.755-11.754-11.755
		l0,0c-6.492,0-11.754,5.263-11.754,11.755v18.421"/>
	<path fill="#6075B0" d="M497.957,663.894h-10.544v-7.203c0-2.911,2.36-5.272,5.272-5.272l0,0c2.911,0,5.271,2.361,5.271,5.272
		V663.894z"/>
	<path fill="#FFBE62" d="M483.403,663.894h-13.476v-9.206c0-3.721,3.017-6.737,6.737-6.737l0,0c3.722,0,6.738,3.017,6.738,6.737
		V663.894z"/>
	<g>
		<path fill="#868498" d="M511.725,709.027h-47.227c-5.881,0-10.692-4.812-10.692-10.692v-26.731
			c0-5.882,4.812-10.693,10.692-10.693h47.227c5.881,0,10.693,4.812,10.693,10.693v26.731
			C522.418,704.216,517.605,709.027,511.725,709.027z"/>
		<path fill="#B0ACBF" d="M500.482,709.027h-47.227c-5.881,0-10.693-4.812-10.693-10.692v-26.731
			c0-5.882,4.812-10.693,10.693-10.693h47.227c5.881,0,10.692,4.812,10.692,10.693v26.731
			C511.175,704.216,506.363,709.027,500.482,709.027z"/>
	</g>
	<rect x="454.889" y="671.468" fill="#0A194D" width="41.881" height="26.286"/>
	<path fill="#6075B0" d="M411.116,701.787h-52.63v-24.254c0-8.114,6.578-14.692,14.692-14.692h23.246
		c8.114,0,14.692,6.578,14.692,14.692V701.787z"/>
	<path fill="#2B3563" d="M429.537,701.787h-52.631v-24.254c0-8.114,6.578-14.692,14.691-14.692h23.247
		c8.114,0,14.692,6.578,14.692,14.692V701.787z"/>
	<g>
		<rect x="376.243" y="672.314" fill="#BF7847" width="75.398" height="69.973"/>
		<rect x="344.691" y="672.314" fill="#DD9762" width="75.397" height="69.973"/>
		<path fill="#2D2D3A" d="M389.059,691.883h-13.338c-2.305,0-4.19-1.886-4.19-4.189v-1.701c0-2.305,1.885-4.19,4.19-4.19h13.338
			c2.304,0,4.19,1.886,4.19,4.19v1.701C393.249,689.997,391.363,691.883,389.059,691.883z"/>
	</g>
	<g>
		<rect x="466.769" y="672.314" fill="#BF7847" width="75.397" height="69.973"/>
		<rect x="435.216" y="672.314" fill="#DD9762" width="75.398" height="69.973"/>
		<path fill="#2D2D3A" d="M479.584,691.883h-13.338c-2.305,0-4.189-1.886-4.189-4.189v-1.701c0-2.305,1.885-4.19,4.189-4.19h13.338
			c2.305,0,4.19,1.886,4.19,4.19v1.701C483.774,689.997,481.889,691.883,479.584,691.883z"/>
	</g>
	<g>
		<g>
			<rect x="428.948" y="505.42" fill="#0A194D" width="39.238" height="11.702"/>
			<rect x="417.934" y="505.42" fill="#6075B0" width="39.237" height="11.702"/>
		</g>
		<path fill="none" stroke="#FFFFFF" stroke-width="2.0651" stroke-linecap="round" stroke-miterlimit="10" d="M433.589,512.971
			L433.589,512.971c-3.88,0.598-6.77,3.897-6.849,7.822l-0.102,5.043c-0.154,7.653-6.348,13.807-14.002,13.912l-13.098,0.181
			c-5.948,0.083-10.921-4.503-11.322-10.438l-0.095-1.424c-0.426-6.317-5.379-11.39-11.685-11.964l0,0l-34.917-0.081
			c-1.151-0.003-2.24-0.529-2.956-1.431l-0.438-0.55"/>
		<path fill="none" stroke="#FFFFFF" stroke-width="2.0651" stroke-linecap="round" stroke-miterlimit="10" d="M440.645,514.004
			L440.645,514.004c-3.449,0.191-6.118,3.094-6.022,6.546l1.04,37.238c0.275,9.859-7.801,17.919-17.66,17.624l0,0
			c-9.112-0.273-16.418-7.628-16.633-16.742l-0.852-36.204c-0.08-3.393-2.802-6.129-6.194-6.226l-16.678-0.064"/>
		<path fill="#FFFFFF" d="M446.324,515.725h-7.571c-0.856,0-1.549-0.693-1.549-1.549l0,0c0-0.855,0.693-1.549,1.549-1.549h7.571
			c0.856,0,1.549,0.693,1.549,1.549l0,0C447.873,515.031,447.18,515.725,446.324,515.725z"/>
		<path fill="#FFFFFF" d="M433.938,514.96h-7.572c-0.855,0-1.549-0.693-1.549-1.549l0,0c0-0.855,0.694-1.549,1.549-1.549h7.572
			c0.855,0,1.549,0.693,1.549,1.549l0,0C435.487,514.267,434.794,514.96,433.938,514.96z"/>
	</g>
</g>
<rect x="519.734" y="240.02" fill="#FC9F7B" width="211.066" height="16.236"/>
<path fill="#F4A891" d="M248.236,417.926h-3.367c-4.374,0-7.953-3.579-7.953-7.952v-25.19c0-4.374,3.579-7.953,7.953-7.953h3.367
	c4.374,0,7.953,3.579,7.953,7.953v25.19C256.188,414.347,252.609,417.926,248.236,417.926z"/>
<g>
	<path fill="#FFFFFF" d="M246.96,320.12l-2.838-3.108c0,0-14.257,2.33-20.034,14.729l2.095,3.075L246.96,320.12z"/>
	<g>
		<path fill="#F3885E" d="M292.377,355.385c-0.037,0.518-0.084,1.035-0.141,1.551c-0.292,2.485-0.833,4.9-1.61,7.192
			c-3.312,9.813-36.992-19.636-46.45-15.904c-4.696,1.857-7.643,41.633-8.396,40.95c-15.997-14.509-15.175-32.347-14.709-38.982
			c1.314-18.713,18.771-32.646,37.331-32.181c0.529,0.016,1.059,0.042,1.586,0.08c11.729,0.824,21.687,7.342,27.381,16.672
			c0.01,0.012,0.01,0.012,0.01,0.012c1.666,2.74,2.964,5.729,3.836,8.881C292.239,347.369,292.661,351.328,292.377,355.385z"/>
		<g>
			<path fill="#FFDCD4" d="M245.862,362.554c-0.041,0.759-0.216,1.488-0.524,2.156c-0.349,0.801-0.883,1.654-1.541,2.249
				c-1.191,1.068-2.783,1.818-4.508,1.726l-3.708-0.195l-2.844-0.144l0.421-8.441h0.01l0.072-1.561l0.062-1.212l0.062-1.109
				l0.011-0.287h0.01l6.542,0.338c1.654,0.082,3.122,0.801,4.19,1.9c0.647,0.667,1.14,1.489,1.438,2.383
				C245.8,361.054,245.903,361.784,245.862,362.554z"/>
			<path fill="#FFC7B0" d="M232.541,373.072c-0.01,0.329,0,0.647,0.01,0.975c0,0.103,0.011,0.206,0.021,0.309
				c0.164,4.086,1.231,7.979,2.999,11.48c0.082,0.175,0.174,0.349,0.267,0.523c2.896,5.443,7.506,9.879,13.166,12.56
				c0.01,0.01,0.021,0.01,0.021,0.01c2.188,1.037,4.539,1.807,7.003,2.259c0.904,0.164,1.808,0.298,2.732,0.39
				c0.37,0.031,0.739,0.051,1.12,0.072c1.355,0.062,2.68,0.052,3.994-0.082c0.37-0.021,0.75-0.052,1.12-0.113
				c12.271-1.52,22.273-10.772,24.615-22.829c0.246-1.284,0.42-2.618,0.482-3.964l0.103-2.043l0.698-13.648
				c0.113-2.054,0.083-4.056-0.154-5.997c-0.174-1.509-0.494-2.988-0.986-4.426c-1.273-3.769-3.02-7.178-5.679-10.084
				c-4.959-5.442-12.077-9.006-20.015-9.417c-5.935-0.309-11.563,1.201-16.359,4.015c-0.688,0.411-1.365,0.853-2.022,1.315
				c-3.286,2.311-6.069,5.298-8.134,8.749c0,0-0.01,0.01-0.01,0.021c-0.544,0.904-1.048,1.859-1.479,2.824
				c-0.082,0.175-0.153,0.338-0.226,0.534c-0.523,1.17-0.996,2.393-1.376,3.645c-0.565,1.787-0.955,3.656-1.068,5.586l-0.02,0.288
				l-0.062,1.108l-0.062,1.212l-0.082,1.551v0.01l-0.01,0.083l-0.011,0.267l-0.041,0.719l-0.36,7.374l-0.133,2.433l-0.041,0.925
				v0.205C232.541,372.302,232.521,372.692,232.541,373.072z"/>
			<path fill="#FFDCD4" d="M228.279,366.038c-0.133,2.69,1.715,5.175,4.282,5.843c0.236,0.062,0.482,0.113,0.739,0.144
				c0.113,0.031,0.247,0.031,0.38,0.041l1.756,0.093l0.194-3.667l0.041-0.821l0.339-6.654l-1.766-0.092
				c-0.165-0.011-0.308-0.011-0.463,0h-0.01c-0.226,0-0.452,0.02-0.667,0.051c0,0-0.011-0.01-0.011,0
				c-1.119,0.134-2.146,0.575-2.947,1.294C229.07,363.234,228.361,364.507,228.279,366.038z"/>
		</g>
		<path fill="#FFC7B0" d="M232.562,371.881v0.031c-0.021,0.391-0.041,0.781-0.021,1.161c-0.01,0.329,0,0.647,0.01,0.975
			c0,0.103,0.011,0.206,0.021,0.309c0.051,0.02,0.103,0.02,0.154,0.031c0.133,4.077,1.129,7.948,2.844,11.45
			c0.082,0.175,0.174,0.349,0.267,0.523c2.875,5.597,7.559,10.167,13.34,12.899c0.01,0.01,0.021,0.01,0.021,0.01
			c4.929,2.958,5.247,2.526,5.247,2.526s2.372-0.308,2.054-0.514c-2.002-1.293-7.178-6.244-10.413-14.798
			c-1.766-4.652-2.177-12.323-2.115-19.183v-0.514c0.031-3.142,0.175-6.1,0.318-8.472c0-0.041,0-0.093,0.011-0.133
			c0.194-3.276,0.41-5.413,0.41-5.413c-2.249-4.857-6.202-4.446-10.084-2.279c-0.534,1.684-0.914,3.44-1.047,5.258
			c-0.01,0.113-0.01,0.216-0.021,0.329h-0.01l-0.01,0.287l-0.062,1.109l-0.062,1.212l-0.082,1.551v0.01c-0.062,0-0.134,0-0.195,0.01
			l-0.041,0.719c-1.119,0.134-2.146,0.575-2.947,1.294c-1.078,0.966-1.787,2.239-1.869,3.769
			C228.146,368.728,229.994,371.213,232.562,371.881z"/>
		<path fill="#F3885E" d="M281.563,343.668c0.452,2.49-0.418,4.85-2.018,6.449c-1.314,1.315-3.143,2.136-5.135,2.136
			c0,0-28.522,2.132-32.635,10.962l-3.052,5.613c-0.449,0.825-1.346,1.315-2.283,1.245c-0.018-0.001-0.035-0.003-0.053-0.004
			c-1.135-0.088-2.049-0.947-2.194-2.076c-0.708-5.495-3.881-21.277-3.881-22.509c0-2.002,1.871-4.322,3.186-5.647
			c1.314-1.315,3.143-2.136,5.135-2.136h35.479C277.685,337.702,280.924,340.152,281.563,343.668z"/>
		<path fill="#F14747" d="M268.822,385.535h4.535c0.612,0,1.113-0.5,1.113-1.112l0,0c0-0.612-0.5-1.112-1.113-1.112h-4.535
			c-0.612,0-1.113,0.5-1.113,1.112l0,0C267.709,385.035,268.21,385.535,268.822,385.535z"/>
		<path fill="#F14747" d="M268.961,387.482h3.183c0.798,0,1.45-0.652,1.45-1.449l0,0c0-0.797-0.652-1.449-1.45-1.449h-3.183
			c-0.797,0-1.449,0.652-1.449,1.449l0,0C267.512,386.831,268.164,387.482,268.961,387.482z"/>
		<path fill="#FFC7B0" d="M275.925,376.807c0,0-0.333,2.065-3.252,1.968c-2.566-0.085-2.824-1.883-2.824-1.883L275.925,376.807z"/>
		<circle fill="#394679" cx="231.682" cy="373.555" r="3.081"/>
		<path fill="#F3885E" d="M279.604,342.49c0,0,8.661-0.344,12.161,9.969c0,0,1.959-10.482-12.418-21.265
			c-14.376-10.783-39.792-1.797-41.847,2.824c-2.054,4.622-1.797,8.215-1.797,8.215L279.604,342.49z"/>
		<g>
			<path fill="none" stroke="#F3885E" stroke-width="2.0538" stroke-linecap="round" stroke-miterlimit="10" d="M266.512,360.718
				c0,0-4.878-2.311-10.013,0.77"/>
			<path fill="none" stroke="#F3885E" stroke-width="2.0538" stroke-linecap="round" stroke-miterlimit="10" d="M286.793,360.076
				c0,0-4.878-2.311-10.013,0.771"/>
		</g>
		<path fill="#0A194D" d="M261.807,369.946L261.807,369.946c-0.706,0-1.284-0.578-1.284-1.284v-2.375
			c0-0.706,0.578-1.284,1.284-1.284l0,0c0.705,0,1.283,0.578,1.283,1.284v2.375C263.09,369.369,262.512,369.946,261.807,369.946z"/>
		<path fill="#0A194D" d="M281.66,369.946L281.66,369.946c-0.706,0-1.284-0.578-1.284-1.284v-2.375c0-0.706,0.578-1.284,1.284-1.284
			l0,0c0.706,0,1.284,0.578,1.284,1.284v2.375C282.944,369.369,282.366,369.946,281.66,369.946z"/>
	</g>
</g>
</svg>
