<?xml version="1.0" encoding="utf-8"?>
<!-- Generator: Adobe Illustrator 16.0.0, SVG Export Plug-In . SVG Version: 6.00 Build 0)  -->
<!DOCTYPE svg PUBLIC "-//W3C//DTD SVG 1.1//EN" "http://www.w3.org/Graphics/SVG/1.1/DTD/svg11.dtd">
<svg version="1.1" id="phone_1_" xmlns="http://www.w3.org/2000/svg" xmlns:xlink="http://www.w3.org/1999/xlink" x="0px" y="0px"
	 width="33px" height="56px" viewBox="0 0 33 56" enable-background="new 0 0 33 56" xml:space="preserve">
<g id="phone">
	<g>
		<path fill="#262626" d="M29.162,0H3.836C1.727,0,0,1.701,0,3.783v48.433C0,54.297,1.727,56,3.836,56h25.326
			C31.272,56,33,54.3,33,52.217V3.783C33,1.701,31.272,0,29.162,0z M12.449,2.727h8.102c0.258,0,0.465,0.204,0.465,0.459
			c0,0.252-0.207,0.457-0.465,0.457h-8.102c-0.256,0-0.464-0.205-0.464-0.457C11.984,2.931,12.193,2.727,12.449,2.727z M16.5,54.109
			c-1.06,0-1.919-0.847-1.919-1.893c0-1.045,0.859-1.891,1.919-1.891c1.059,0,1.918,0.846,1.918,1.891
			C18.418,53.263,17.559,54.109,16.5,54.109z M30.331,49H2.67V5.998h27.661V49z"/>
	</g>
</g>
</svg>
