<?xml version="1.0" encoding="utf-8"?>
<!-- Generator: Adobe Illustrator 16.0.0, SVG Export Plug-In . SVG Version: 6.00 Build 0)  -->
<!DOCTYPE svg PUBLIC "-//W3C//DTD SVG 1.1//EN" "http://www.w3.org/Graphics/SVG/1.1/DTD/svg11.dtd">
<svg version="1.1" id="Group_1_1_" xmlns="http://www.w3.org/2000/svg" xmlns:xlink="http://www.w3.org/1999/xlink" x="0px" y="0px"
	 width="200px" height="200px" viewBox="0 0 200 200" enable-background="new 0 0 200 200" xml:space="preserve">
<g id="Shape_3">
	<g>
		<path fill="#0D293C" d="M146,118c0,0-4.666-20.333-20-23c0,0,25.334-12,10-41c0,0-10.334-13.667-26-15H51v24h49
			c0,0,19.334,4.333,9,19c-3.921,3.428-1.174,1.587-6,4H51v73h64C115,159,150.666,151,146,118z"/>
	</g>
</g>
<g id="Ellipse_1">
	<g>
		<path fill="#FFFFFF" d="M107,108c-7.18,0-13,5.044-13,12.5s5.82,14.5,13,14.5s13-7.044,13-14.5S114.18,108,107,108z"/>
	</g>
</g>
<g id="Rectangle_1">
	<g>
		<rect x="81" y="108" fill="#FFFFFF" width="28" height="27"/>
	</g>
</g>
</svg>
