<?xml version="1.0" encoding="utf-8"?>
<!-- Generator: Adobe Illustrator 16.0.0, SVG Export Plug-In . SVG Version: 6.00 Build 0)  -->
<!DOCTYPE svg PUBLIC "-//W3C//DTD SVG 1.1//EN" "http://www.w3.org/Graphics/SVG/1.1/DTD/svg11.dtd">
<svg version="1.1" id="Layer_1" xmlns="http://www.w3.org/2000/svg" xmlns:xlink="http://www.w3.org/1999/xlink" x="0px" y="0px"
	 width="800px" height="615px" viewBox="0 0 800 615" enable-background="new 0 0 800 615" xml:space="preserve">
<polygon display="none" fill-rule="evenodd" clip-rule="evenodd" fill="#F1F2F3" points="253.818,473.871 253.818,473.297 
	103.873,473.297 103.873,207.95 253.281,207.95 253.281,473.871 253.818,473.871 253.818,473.297 253.818,473.871 254.354,473.871 
	254.354,206.875 102.763,206.875 102.763,474.407 254.354,474.407 254.354,473.871 "/>
<rect x="103.302" y="207.413" fill-rule="evenodd" clip-rule="evenodd" fill="#205171" width="150.517" height="266.352"/>
<rect x="103.302" y="206.552" fill-rule="evenodd" clip-rule="evenodd" fill="#0F303F" width="150.517" height="19.993"/>
<rect x="203.801" y="213.432" fill-rule="evenodd" clip-rule="evenodd" fill="#FFFFFF" width="0.572" height="5.805"/>
<rect x="202.726" y="214.112" fill-rule="evenodd" clip-rule="evenodd" fill="#FFFFFF" width="0.574" height="5.124"/>
<rect x="201.651" y="214.829" fill-rule="evenodd" clip-rule="evenodd" fill="#FFFFFF" width="0.571" height="4.407"/>
<rect x="200.611" y="215.224" fill-rule="evenodd" clip-rule="evenodd" fill="#FFFFFF" width="0.574" height="4.013"/>
<rect x="199.538" y="216.012" fill-rule="evenodd" clip-rule="evenodd" fill="#FFFFFF" width="0.572" height="3.225"/>
<rect x="198.463" y="216.584" fill-rule="evenodd" clip-rule="evenodd" fill="#FFFFFF" width="0.574" height="2.652"/>
<rect x="197.315" y="217.266" fill-rule="evenodd" clip-rule="evenodd" fill="#FFFFFF" width="0.573" height="1.971"/>
<path fill="#FFFFFF" d="M215.588,212.321c0-0.107-0.07-0.18-0.179-0.18h-2.364c-0.071,0-0.179,0.072-0.179,0.18v0.465h2.722V212.321
	z M213.01,216.19h2.437v1.469h-2.437V216.19z M215.479,219.63h-2.47v-1.468h2.47V219.63z M216.162,213.038h-3.835
	c-0.179,0-0.285,0.144-0.285,0.286v6.88c0,0.144,0.106,0.286,0.285,0.286h3.835c0.144,0,0.287-0.143,0.287-0.286v-6.88
	C216.449,213.182,216.306,213.038,216.162,213.038L216.162,213.038z M215.875,219.917L215.875,219.917h-3.296v-6.307h3.296V219.917z
	"/>
<rect x="213.01" y="214.257" fill-rule="evenodd" clip-rule="evenodd" fill="#FFFFFF" width="2.437" height="1.468"/>
<path fill="#FFFFFF" d="M224.688,214.327c-0.32,0.322-0.751,0.646-1.255,0.932v-0.717c0.647-0.43,1.148-0.932,1.541-1.504h0.431
	v6.448h-0.717V214.327z M227.808,219.308c0.035-0.357,0.214-0.681,0.536-1.003c0.322-0.287,0.718-0.752,1.219-1.396
	c0.501-0.646,0.823-1.112,0.967-1.471c0.144-0.357,0.214-0.645,0.179-0.896c-0.035-0.25-0.179-0.466-0.357-0.609
	c-0.216-0.179-0.431-0.25-0.682-0.214c-0.285,0.035-0.537,0.143-0.751,0.286c-0.252,0.18-0.431,0.466-0.539,0.788l-0.715-0.107
	c0.179-0.573,0.464-0.967,0.753-1.254c0.32-0.25,0.68-0.394,1.108-0.431c0.251,0,0.466,0,0.68,0.037
	c0.181,0.035,0.396,0.106,0.611,0.25c0.214,0.144,0.396,0.359,0.501,0.609c0.144,0.287,0.214,0.609,0.179,1.004
	c-0.035,0.394-0.251,0.859-0.573,1.36c-0.358,0.538-1.038,1.397-2.043,2.544h2.689v0.681h-3.762V219.308z M234.865,216.083h-0.861
	v-0.824h0.861V216.083z M234.865,219.522h-0.861v-0.824h0.861V219.522z M237.301,217.875l0.645-0.108
	c0.107,0.322,0.287,0.574,0.503,0.788c0.214,0.216,0.501,0.323,0.823,0.287c0.358,0,0.609-0.144,0.824-0.395
	c0.179-0.25,0.286-0.572,0.251-0.895c-0.037-0.323-0.144-0.609-0.395-0.789c-0.252-0.18-0.609-0.322-1.146-0.394v-0.467
	c0.537-0.07,0.895-0.214,1.146-0.43c0.251-0.215,0.357-0.501,0.322-0.859c-0.036-0.357-0.179-0.645-0.502-0.788
	c-0.286-0.179-0.606-0.179-0.932-0.072c-0.357,0.144-0.608,0.466-0.825,1.039l-0.643-0.107c0.144-0.429,0.357-0.824,0.609-1.11
	c0.25-0.287,0.609-0.466,1.073-0.537c0.431-0.037,0.825,0.035,1.147,0.179c0.358,0.179,0.574,0.431,0.718,0.753
	c0.142,0.322,0.142,0.716,0.07,1.11c-0.107,0.394-0.395,0.716-0.86,1.038c0.322,0.144,0.609,0.359,0.79,0.682
	c0.179,0.287,0.249,0.68,0.179,1.146c-0.037,0.502-0.289,0.896-0.646,1.184c-0.357,0.322-0.786,0.466-1.254,0.431
	c-0.501,0-0.896-0.145-1.254-0.431C237.623,218.842,237.373,218.412,237.301,217.875L237.301,217.875z M242.031,215.903
	c0.033-0.645,0.106-1.182,0.285-1.576c0.144-0.357,0.395-0.68,0.682-0.932c0.287-0.251,0.645-0.395,1.11-0.395
	c0.431,0,0.788,0.181,1.11,0.574c0.323,0.357,0.537,0.788,0.646,1.361c0.105,0.537,0.144,1.146,0.105,1.863
	c-0.033,0.716-0.177,1.289-0.393,1.755c-0.215,0.431-0.501,0.753-0.932,0.932c-0.431,0.144-0.859,0.144-1.29-0.071
	c-0.395-0.215-0.717-0.502-0.896-0.824c-0.179-0.358-0.285-0.716-0.358-1.111C242.031,217.087,241.994,216.549,242.031,215.903
	L242.031,215.903z M242.819,215.689c-0.072,0.681-0.072,1.289,0.07,1.826c0.108,0.538,0.323,0.896,0.609,1.147
	c0.287,0.215,0.574,0.25,0.859,0.107c0.324-0.144,0.538-0.395,0.682-0.825c0.108-0.393,0.179-0.858,0.179-1.324
	c0-0.503,0-0.932-0.035-1.326c-0.035-0.394-0.144-0.753-0.357-1.075c-0.181-0.322-0.433-0.501-0.718-0.501
	c-0.322-0.036-0.609,0.143-0.823,0.466C243.033,214.507,242.89,215.008,242.819,215.689L242.819,215.689z"/>
<path fill-rule="evenodd" clip-rule="evenodd" fill="#FFFFFF" d="M178.576,239.336c30.098,0,54.496,24.398,54.496,54.496
	c0,30.097-24.398,54.496-54.496,54.496c-30.13,0-54.529-24.399-54.529-54.496C124.047,263.734,148.446,239.336,178.576,239.336
	L178.576,239.336z"/>
<path fill-rule="evenodd" clip-rule="evenodd" fill="#2C6F9B" d="M187.784,297.38v4.515c17.163,9.888,25.87,4.907,25.87,27.121
	h-34.612h-0.393h-35.184c0-23.072,8.669-17.233,25.832-27.121v-3.906c-3.045-2.114-3.727-5.984-4.729-9.996h-0.035
	c-0.468,0-0.86-0.717-0.86-1.576c0-0.144,0-0.252,0-0.324c-0.252-0.466-0.537-1.11-0.753-2.077
	c-0.358-1.182-1.469-3.654-0.501-4.729c0.823-0.788,1.468,0.035,1.468,0.035c-1.289-6.557-2.937-15.12,6.091-17.698
	c0-5.59,21.249-3.117,23.827,5.874c1.11,3.513-0.359,11.682-0.359,11.682c0.289-0.537,0.646-0.646,1.183-0.323
	c1.111,0.824-0.143,4.12-0.43,5.16c-0.287,1.039-0.607,1.72-0.895,2.186v0.216c0,0.859-0.322,1.539-0.79,1.576
	C191.619,291.538,190.652,295.514,187.784,297.38L187.784,297.38z"/>
<rect x="140.349" y="377.778" fill-rule="evenodd" clip-rule="evenodd" fill="#FFFFFF" width="87.638" height="15.226"/>
<rect x="140.349" y="400.495" fill-rule="evenodd" clip-rule="evenodd" fill="#FFFFFF" width="87.638" height="15.19"/>
<rect x="170.73" y="425.109" fill-rule="evenodd" clip-rule="evenodd" fill="#FFFFFF" width="26.872" height="11.322"/>
<path fill="#2C6F9B" d="M178.397,432.453c0,0.072,0,0.108,0,0.144s-0.035,0.035-0.035,0.07c0,0.038-0.035,0.038-0.035,0.038
	c0,0.035-0.035,0.035-0.073,0.035h-1.969c-0.071,0-0.108-0.035-0.182-0.073c-0.035-0.035-0.07-0.07-0.07-0.179v-4.19
	c0-0.037,0-0.037,0.035-0.071c0,0,0,0,0.035,0c0.038-0.036,0.073-0.036,0.11-0.036c0.033,0,0.071,0,0.144,0c0.033,0,0.106,0,0.142,0
	s0.073,0,0.073,0.036c0.033,0,0.033,0,0.07,0c0,0.034,0,0.034,0,0.071v3.905h1.611c0.038,0,0.073,0,0.073,0.036
	c0,0,0.035,0,0.035,0.035c0,0,0.035,0.035,0.035,0.072C178.397,432.383,178.397,432.418,178.397,432.453L178.397,432.453z
	 M181.908,431.021c0,0.287-0.033,0.501-0.106,0.715c-0.035,0.217-0.142,0.396-0.287,0.574c-0.144,0.144-0.287,0.287-0.501,0.357
	c-0.216,0.073-0.431,0.144-0.718,0.144c-0.249,0-0.466-0.035-0.68-0.144c-0.179-0.07-0.322-0.179-0.466-0.32
	c-0.142-0.144-0.214-0.322-0.285-0.538c-0.072-0.217-0.11-0.431-0.11-0.718c0-0.249,0.038-0.501,0.11-0.715
	c0.071-0.217,0.177-0.396,0.32-0.539c0.108-0.179,0.287-0.285,0.504-0.357c0.179-0.106,0.428-0.144,0.68-0.144
	s0.501,0.037,0.68,0.108c0.179,0.07,0.357,0.179,0.501,0.357c0.11,0.144,0.217,0.322,0.287,0.501
	C181.875,430.517,181.908,430.771,181.908,431.021L181.908,431.021z M181.301,431.056c0-0.144,0-0.322-0.035-0.466
	c-0.038-0.144-0.073-0.287-0.144-0.393c-0.073-0.108-0.179-0.217-0.287-0.287c-0.144-0.073-0.287-0.108-0.466-0.108
	s-0.322,0.035-0.466,0.108c-0.108,0.07-0.214,0.144-0.287,0.249c-0.07,0.108-0.144,0.252-0.179,0.396
	c-0.037,0.144-0.07,0.322-0.07,0.501s0.033,0.322,0.07,0.501c0,0.144,0.072,0.287,0.144,0.396c0.07,0.108,0.179,0.179,0.287,0.251
	c0.141,0.071,0.284,0.106,0.466,0.106c0.179,0,0.32-0.035,0.43-0.106c0.142-0.037,0.25-0.143,0.323-0.251
	c0.07-0.108,0.141-0.217,0.179-0.396C181.301,431.413,181.301,431.234,181.301,431.056L181.301,431.056z M185.42,429.623
	c0,0.107-0.035,0.143-0.035,0.179c-0.035,0.035-0.072,0.072-0.108,0.072h-0.428c0.07,0.071,0.144,0.18,0.144,0.285
	c0.035,0.073,0.07,0.179,0.07,0.287c0,0.179-0.035,0.358-0.108,0.503c-0.035,0.142-0.141,0.25-0.251,0.358
	c-0.106,0.105-0.215,0.179-0.358,0.214c-0.179,0.035-0.322,0.07-0.501,0.07c-0.144,0-0.249,0-0.395-0.035
	c-0.106-0.035-0.177-0.07-0.25-0.144c-0.037,0.038-0.07,0.108-0.108,0.144c0,0.073-0.035,0.108-0.035,0.179
	c0,0.108,0.035,0.179,0.106,0.217c0.072,0.072,0.181,0.072,0.324,0.108l0.823,0.035c0.144,0,0.287,0,0.431,0.035
	c0.108,0.035,0.214,0.108,0.322,0.179c0.108,0.073,0.179,0.144,0.214,0.252c0.073,0.105,0.108,0.249,0.108,0.357
	c0,0.144-0.035,0.287-0.108,0.431c-0.07,0.144-0.144,0.251-0.284,0.322c-0.108,0.108-0.289,0.179-0.466,0.249
	c-0.182,0.073-0.431,0.073-0.683,0.073c-0.249,0-0.466,0-0.645-0.035c-0.179-0.074-0.322-0.108-0.466-0.179
	c-0.108-0.073-0.179-0.18-0.252-0.287c-0.035-0.108-0.07-0.217-0.07-0.325c0-0.07,0.035-0.141,0.035-0.214
	c0.035-0.071,0.035-0.144,0.108-0.214c0.035-0.073,0.07-0.144,0.144-0.179c0.035-0.073,0.105-0.144,0.179-0.179
	c-0.108-0.073-0.179-0.144-0.252-0.252c-0.035-0.07-0.07-0.179-0.07-0.287c0-0.144,0.035-0.252,0.07-0.357
	c0.073-0.108,0.144-0.217,0.217-0.322c-0.073-0.073-0.144-0.179-0.179-0.287c-0.038-0.106-0.038-0.252-0.038-0.396
	c0-0.179,0-0.322,0.073-0.466c0.07-0.142,0.144-0.285,0.249-0.357c0.108-0.106,0.252-0.179,0.396-0.25
	c0.144-0.035,0.322-0.072,0.501-0.072c0.073,0,0.179,0,0.252,0.037c0.07,0,0.179,0,0.249,0.035h0.932c0.036,0,0.073,0,0.108,0.071
	C185.385,429.515,185.42,429.552,185.42,429.623L185.42,429.623z M184.488,430.481c0-0.214-0.035-0.393-0.179-0.501
	c-0.108-0.144-0.287-0.179-0.501-0.179c-0.108,0-0.179,0-0.287,0.035c-0.072,0.037-0.144,0.108-0.216,0.144
	c-0.033,0.073-0.071,0.144-0.106,0.252c-0.037,0.07-0.037,0.179-0.037,0.249c0,0.217,0.072,0.36,0.181,0.504
	c0.106,0.105,0.287,0.179,0.501,0.179c0.108,0,0.215-0.035,0.287-0.073c0.07-0.035,0.144-0.07,0.214-0.142
	c0.038-0.072,0.108-0.145,0.108-0.216C184.488,430.662,184.488,430.555,184.488,430.481L184.488,430.481z M184.775,432.954
	c0-0.144-0.035-0.214-0.144-0.322c-0.105-0.07-0.287-0.106-0.466-0.106l-0.823-0.037c-0.07,0.073-0.108,0.144-0.181,0.179
	c-0.033,0.073-0.071,0.108-0.106,0.144c-0.035,0.072-0.035,0.108-0.035,0.144c-0.035,0.035-0.035,0.108-0.035,0.144
	c0,0.144,0.07,0.287,0.249,0.359c0.144,0.071,0.36,0.106,0.645,0.106c0.144,0,0.322,0,0.431-0.035s0.217-0.108,0.287-0.144
	c0.073-0.07,0.106-0.108,0.144-0.179C184.775,433.098,184.775,433.027,184.775,432.954L184.775,432.954z M188.432,432.632
	c0,0.035,0,0.035,0,0.073c0,0-0.038,0-0.073,0.035c0,0-0.035,0-0.07,0c-0.038,0-0.108,0-0.144,0c-0.073,0-0.108,0-0.144,0
	c-0.037,0-0.073,0-0.108,0c0-0.035-0.035-0.035-0.035-0.035c0-0.038-0.035-0.038-0.035-0.073v-4.334
	c0-0.037,0.035-0.037,0.035-0.071h0.035c0.035-0.036,0.071-0.036,0.108-0.036c0.035,0,0.07,0,0.144,0c0.035,0,0.105,0,0.144,0
	c0.035,0,0.07,0,0.07,0.036c0.035,0,0.073,0,0.073,0c0,0.034,0,0.034,0,0.071V432.632z M192.299,432.632
	c0,0.035,0,0.035-0.035,0.073c0,0,0,0-0.035,0.035c-0.037,0-0.037,0-0.072,0c-0.036,0-0.106,0-0.144,0c-0.071,0-0.106,0-0.142,0
	c-0.038,0-0.073,0-0.108,0c0-0.035-0.035-0.035-0.035-0.035c0-0.038,0-0.038,0-0.073v-1.827c0-0.18-0.037-0.323-0.073-0.429
	c0-0.108-0.07-0.217-0.105-0.287c-0.073-0.073-0.108-0.144-0.217-0.179c-0.072-0.036-0.179-0.073-0.287-0.073
	c-0.143,0-0.286,0.037-0.43,0.144c-0.142,0.108-0.285,0.252-0.466,0.466v2.186c0,0.035,0,0.035,0,0.073c0,0-0.036,0-0.036,0.035
	c-0.035,0-0.07,0-0.107,0c-0.033,0-0.071,0-0.144,0c-0.033,0-0.106,0-0.142,0s-0.073,0-0.073,0c-0.035-0.035-0.035-0.035-0.07-0.035
	c0-0.038,0-0.038,0-0.073v-3.152v-0.035c0.035,0,0.035-0.036,0.07-0.036c0,0,0.038,0,0.073-0.035c0.035,0,0.07,0,0.108,0
	c0.07,0,0.105,0,0.144,0c0.033,0.035,0.07,0.035,0.07,0.035c0.035,0,0.035,0.036,0.035,0.036c0.035,0,0.035,0.035,0.035,0.035v0.431
	c0.182-0.217,0.36-0.358,0.502-0.431c0.179-0.106,0.359-0.144,0.538-0.144c0.214,0,0.396,0.037,0.537,0.108
	c0.143,0.07,0.251,0.179,0.359,0.286c0.07,0.106,0.142,0.25,0.179,0.429c0.035,0.144,0.07,0.322,0.07,0.574V432.632z"/>
<rect x="129.134" y="377.778" fill-rule="evenodd" clip-rule="evenodd" fill="#205171" width="14.833" height="15.226"/>
<rect x="129.134" y="400.495" fill-rule="evenodd" clip-rule="evenodd" fill="#205171" width="14.833" height="15.19"/>
<path fill-rule="evenodd" clip-rule="evenodd" fill="#FFFFFF" d="M137.876,385.911v0.646c2.438,1.396,3.691,0.681,3.691,3.868
	h-4.945h-0.073h-5.016c0-3.296,1.219-2.473,3.691-3.868v-0.573c-0.431-0.287-0.537-0.861-0.68-1.436l0,0
	c-0.073,0-0.144-0.105-0.144-0.214c0-0.035,0-0.035,0-0.035c-0.038-0.073-0.073-0.179-0.108-0.322s-0.214-0.504-0.071-0.683
	c0.142-0.105,0.215,0,0.215,0c-0.179-0.932-0.431-2.148,0.896-2.508c0-0.823,3.044-0.466,3.404,0.825
	c0.141,0.502-0.073,1.683-0.073,1.683c0.073-0.07,0.108-0.105,0.179-0.035c0.179,0.108,0,0.574-0.07,0.718
	c-0.035,0.144-0.073,0.249-0.108,0.322v0.035c0,0.108-0.035,0.214-0.108,0.214C138.412,385.049,138.269,385.625,137.876,385.911
	L137.876,385.911z"/>
<path fill-rule="evenodd" clip-rule="evenodd" fill="#FFFFFF" d="M133.827,406.729v1.576v0.501v3.331h5.411v-3.726v-0.106v-0.611
	v-0.179v-0.786c0-1.506-1.184-2.689-2.689-2.689C135.046,404.04,133.827,405.224,133.827,406.729L133.827,406.729z M138.307,407.48
	L138.307,407.48h-3.513v-0.751c0-0.97,0.788-1.758,1.755-1.758c0.97,0,1.758,0.788,1.758,1.758v0.786v0.179V407.48z"/>
</svg>
