<?xml version="1.0" encoding="utf-8"?>
<!-- Generator: Adobe Illustrator 16.0.0, SVG Export Plug-In . SVG Version: 6.00 Build 0)  -->
<!DOCTYPE svg PUBLIC "-//W3C//DTD SVG 1.1//EN" "http://www.w3.org/Graphics/SVG/1.1/DTD/svg11.dtd">
<svg version="1.1" id="Objects" xmlns="http://www.w3.org/2000/svg" xmlns:xlink="http://www.w3.org/1999/xlink" x="0px" y="0px"
	 width="800px" height="800px" viewBox="0 0 800 800" enable-background="new 0 0 800 800" xml:space="preserve">
<g>
	<g id="mouse_computer">
		<g>
			<path fill="#FFFFFF" d="M452.936,496.99H674.9c4.788,0,8.683,3.898,8.683,8.688c0,4.791-3.895,8.689-8.683,8.689h-44.592
				c-4.773,0-8.66,3.883-8.66,8.662c0,4.775,0,50.082,0,50.082h3.754c0,0,0-47.379,0-50.082s2.206-4.904,4.906-4.904H674.9
				c6.854,0,12.438-5.588,12.438-12.447c0-6.861-5.584-12.441-12.438-12.441l-221.965-0.004"/>
		</g>
		<g>
			<path fill="#FFFFFF" d="M627.822,569.77c9.506,0,17.218,7.713,17.218,17.213v41.307c0,9.498-7.712,17.205-17.218,17.205h-4.579
				V569.77H627.822z"/>
			<path fill="#E6E7E8" d="M618.651,569.77h4.592v75.725h-4.592c-9.5,0-17.212-7.707-17.212-17.205v-41.307
				C601.439,577.482,609.151,569.77,618.651,569.77z"/>
		</g>
		<g>
			<path fill="#103754" d="M628.979,588.037v3.701c0,3.168-2.581,5.736-5.736,5.744v-15.18
				C626.398,582.303,628.979,584.873,628.979,588.037z"/>
			<path fill="#0E303F" d="M623.243,582.303L623.243,582.303v15.18l0,0c-3.175,0-5.738-2.576-5.738-5.744v-3.701
				C617.505,584.873,620.068,582.303,623.243,582.303z"/>
		</g>
	</g>
	<g id="screen">
		<g>
			<path fill="#929292" d="M350.378,444.146c-3.717,15.197-7.434,30.393-11.148,45.592c34.684,0,69.371,0,104.061,0
				c-3.72-15.199-7.437-30.395-11.15-45.592C404.886,444.146,377.633,444.146,350.378,444.146z"/>
			<path fill="#FFFFFF" d="M449.72,488.934H332.796c-2.968,0-5.375,2.82-5.375,6.313v2.369h127.674v-2.369
				C455.096,491.754,452.685,488.934,449.72,488.934z"/>
			<path fill="#FFFFFF" d="M215.441,426.412v25.125c0,4.836,3.909,8.748,8.758,8.748h334.116c4.835,0,8.758-3.912,8.758-8.748
				v-25.125H215.441z"/>
			<path fill="#0E303F" d="M567.073,426.412V213.703c0-4.838-3.923-8.753-8.758-8.753H224.2c-4.849,0-8.758,3.915-8.758,8.753
				v212.709H567.073z"/>
			<rect x="229.847" y="218.629" fill="#E6E7E8" width="322.824" height="193.265"/>
			<g>
				<rect x="229.847" y="218.629" fill="#104D7C" width="322.824" height="34.754"/>
				<rect x="229.847" y="253.384" fill="#A2D7E7" width="322.824" height="73.5"/>
				<g>
					<g>
						<g>
							<rect x="267.131" y="333.077" fill="#104D7C" width="73.918" height="44.382"/>
							<rect x="267.131" y="381.921" fill="#104D7C" width="73.918" height="3.522"/>
							<rect x="267.131" y="388.966" fill="#104D7C" width="73.918" height="3.522"/>
							<rect x="267.131" y="396.01" fill="#104D7C" width="73.918" height="3.522"/>
							<rect x="267.131" y="403.056" fill="#104D7C" width="50.714" height="3.522"/>
						</g>
						<g>
							<rect x="354.3" y="333.077" fill="#104D7C" width="73.917" height="44.382"/>
							<rect x="354.3" y="381.921" fill="#104D7C" width="74.181" height="3.522"/>
							<rect x="354.3" y="388.966" fill="#104D7C" width="74.181" height="3.522"/>
							<rect x="354.3" y="396.01" fill="#104D7C" width="74.181" height="3.522"/>
							<rect x="354.3" y="403.056" fill="#104D7C" width="74.181" height="3.522"/>
						</g>
						<g>
							<rect x="441.469" y="333.077" fill="#104D7C" width="73.918" height="44.382"/>
							<rect x="441.469" y="381.921" fill="#104D7C" width="73.918" height="3.522"/>
							<rect x="441.469" y="388.966" fill="#104D7C" width="73.918" height="3.522"/>
							<rect x="441.469" y="396.01" fill="#104D7C" width="73.918" height="3.522"/>
							<rect x="441.469" y="403.056" fill="#104D7C" width="21.031" height="3.522"/>
						</g>
					</g>
				</g>
				<circle fill="#E6E7E8" cx="279.878" cy="236.007" r="12.747"/>
				<g>
					<rect x="484.333" y="226.99" fill="#E6E7E8" width="31.054" height="11.898"/>
					<rect x="446.973" y="226.99" fill="#E6E7E8" width="31.054" height="11.898"/>
					<rect x="409.612" y="226.99" fill="#E6E7E8" width="31.054" height="11.898"/>
					<rect x="372.252" y="226.99" fill="#E6E7E8" width="31.054" height="11.898"/>
				</g>
			</g>
		</g>
	</g>
	<g id="keyboard">
		<path fill="#FFFFFF" d="M556.597,531.609c0-2.199-1.927-4.006-4.273-4.006H230.182c-2.346,0-4.264,1.807-4.264,4.006V649.98
			c0,2.201,1.918,4.008,4.264,4.008h322.142c2.347,0,4.273-1.807,4.273-4.008V531.609z"/>
		<g>
			<path fill="#CCCCCC" d="M252.175,554.92c0,0.574-0.467,1.041-1.04,1.041h-15.917c-0.575,0-1.042-0.467-1.042-1.041v-15.912
				c0-0.576,0.466-1.041,1.042-1.041h15.917c0.573,0,1.04,0.465,1.04,1.041V554.92z"/>
			<path fill="#CCCCCC" d="M285.162,576.834c0,0.58-0.46,1.049-1.042,1.049h-15.916c-0.574,0-1.036-0.469-1.036-1.049v-15.916
				c0-0.566,0.462-1.035,1.036-1.035h15.916c0.582,0,1.042,0.469,1.042,1.035V576.834z"/>
			<path fill="#CCCCCC" d="M290.353,598.754c0,0.578-0.467,1.037-1.041,1.037h-15.918c-0.564,0-1.041-0.459-1.041-1.037v-15.92
				c0-0.563,0.476-1.033,1.041-1.033h15.918c0.573,0,1.041,0.471,1.041,1.033V598.754z"/>
			<path fill="#CCCCCC" d="M279.621,620.67c0,0.57-0.466,1.041-1.036,1.041h-15.917c-0.568,0-1.037-0.471-1.037-1.041v-15.916
				c0-0.57,0.469-1.043,1.037-1.043h15.917c0.57,0,1.036,0.473,1.036,1.043V620.67z"/>
			<path fill="#CCCCCC" d="M252.175,645.354c0,0.576-0.467,1.041-1.04,1.041h-15.917c-0.575,0-1.042-0.465-1.042-1.041v-18.686
				c0-0.563,0.466-1.039,1.042-1.039h15.917c0.573,0,1.04,0.477,1.04,1.039V645.354z"/>
			<path fill="#CCCCCC" d="M274.027,645.354c0,0.576-0.466,1.041-1.042,1.041h-15.911c-0.57,0-1.039-0.465-1.039-1.041v-18.686
				c0-0.563,0.469-1.039,1.039-1.039h15.911c0.576,0,1.042,0.477,1.042,1.039V645.354z"/>
			<path fill="#CCCCCC" d="M295.89,645.354c0,0.576-0.47,1.041-1.043,1.041H278.93c-0.572,0-1.038-0.465-1.038-1.041v-18.686
				c0-0.563,0.466-1.039,1.038-1.039h15.917c0.573,0,1.043,0.477,1.043,1.039V645.354z"/>
			<path fill="#CCCCCC" d="M482.588,645.354c0,0.576-0.476,1.041-1.046,1.041h-15.919c-0.568,0-1.035-0.465-1.035-1.041v-18.686
				c0-0.563,0.467-1.039,1.035-1.039h15.919c0.57,0,1.046,0.477,1.046,1.039V645.354z"/>
			<path fill="#CCCCCC" d="M504.496,645.354c0,0.576-0.467,1.041-1.039,1.041H487.55c-0.582,0-1.053-0.465-1.053-1.041v-8.305
				c0-0.568,0.471-1.039,1.053-1.039h15.907c0.572,0,1.039,0.471,1.039,1.039V645.354z"/>
			<path fill="#CCCCCC" d="M548.33,645.354c0,0.576-0.47,1.041-1.043,1.041h-15.912c-0.57,0-1.046-0.465-1.046-1.041v-8.305
				c0-0.568,0.476-1.039,1.046-1.039h15.912c0.573,0,1.043,0.471,1.043,1.039V645.354z"/>
			<path fill="#CCCCCC" d="M323.453,645.354c0,0.576-0.467,1.041-1.032,1.041h-21.634c-0.571,0-1.035-0.465-1.035-1.041v-18.686
				c0-0.563,0.463-1.039,1.035-1.039h21.634c0.565,0,1.032,0.477,1.032,1.039V645.354z"/>
			<path fill="#CCCCCC" d="M460.666,645.354c0,0.576-0.465,1.041-1.041,1.041h-21.626c-0.566,0-1.043-0.465-1.043-1.041v-18.686
				c0-0.563,0.477-1.039,1.043-1.039h21.626c0.576,0,1.041,0.477,1.041,1.039V645.354z"/>
			<path fill="#CCCCCC" d="M433.041,645.354c0,0.576-0.473,1.041-1.048,1.041H328.415c-0.565,0-1.044-0.465-1.044-1.041v-18.686
				c0-0.563,0.479-1.039,1.044-1.039h103.579c0.575,0,1.048,0.477,1.048,1.039V645.354z"/>
			<path fill="#CCCCCC" d="M301.537,620.67c0,0.57-0.462,1.041-1.036,1.041h-15.918c-0.563,0-1.036-0.471-1.036-1.041v-15.916
				c0-0.57,0.473-1.043,1.036-1.043h15.918c0.573,0,1.036,0.473,1.036,1.043V620.67z"/>
			<path fill="#CCCCCC" d="M323.453,620.67c0,0.57-0.467,1.041-1.032,1.041h-15.918c-0.573,0-1.04-0.471-1.04-1.041v-15.916
				c0-0.57,0.467-1.043,1.04-1.043h15.918c0.565,0,1.032,0.473,1.032,1.043V620.67z"/>
			<path fill="#CCCCCC" d="M345.372,620.67c0,0.57-0.465,1.041-1.043,1.041h-15.915c-0.565,0-1.044-0.471-1.044-1.041v-15.916
				c0-0.57,0.479-1.043,1.044-1.043h15.915c0.578,0,1.043,0.473,1.043,1.043V620.67z"/>
			<path fill="#CCCCCC" d="M367.287,620.67c0,0.57-0.47,1.041-1.036,1.041h-15.913c-0.572,0-1.045-0.471-1.045-1.041v-15.916
				c0-0.57,0.473-1.043,1.045-1.043h15.913c0.565,0,1.036,0.473,1.036,1.043V620.67z"/>
			<path fill="#CCCCCC" d="M389.204,620.67c0,0.57-0.467,1.041-1.036,1.041H372.25c-0.568,0-1.035-0.471-1.035-1.041v-15.916
				c0-0.57,0.467-1.043,1.035-1.043h15.918c0.568,0,1.036,0.473,1.036,1.043V620.67z"/>
			<path fill="#CCCCCC" d="M411.122,620.67c0,0.57-0.464,1.041-1.037,1.041h-15.917c-0.576,0-1.043-0.471-1.043-1.041v-15.916
				c0-0.57,0.467-1.043,1.043-1.043h15.917c0.573,0,1.037,0.473,1.037,1.043V620.67z"/>
			<path fill="#CCCCCC" d="M433.041,620.67c0,0.57-0.473,1.041-1.048,1.041h-15.912c-0.569,0-1.035-0.471-1.035-1.041v-15.916
				c0-0.57,0.466-1.043,1.035-1.043h15.912c0.575,0,1.048,0.473,1.048,1.043V620.67z"/>
			<path fill="#CCCCCC" d="M454.956,620.67c0,0.57-0.468,1.041-1.042,1.041h-15.915c-0.566,0-1.043-0.471-1.043-1.041v-15.916
				c0-0.57,0.477-1.043,1.043-1.043h15.915c0.574,0,1.042,0.473,1.042,1.043V620.67z"/>
			<path fill="#CCCCCC" d="M476.869,620.67c0,0.57-0.459,1.041-1.036,1.041h-15.917c-0.575,0-1.04-0.471-1.04-1.041v-15.916
				c0-0.57,0.465-1.043,1.04-1.043h15.917c0.577,0,1.036,0.473,1.036,1.043V620.67z"/>
			<path fill="#CCCCCC" d="M498.787,620.67c0,0.57-0.47,1.041-1.041,1.041h-15.912c-0.573,0-1.044-0.471-1.044-1.041v-15.916
				c0-0.57,0.471-1.043,1.044-1.043h15.912c0.571,0,1.041,0.473,1.041,1.043V620.67z"/>
			<path fill="#CCCCCC" d="M548.153,620.67c0,0.57-0.467,1.041-1.039,1.041h-43.367c-0.571,0-1.04-0.471-1.04-1.041v-15.916
				c0-0.57,0.469-1.043,1.04-1.043h43.367c0.572,0,1.039,0.473,1.039,1.043V620.67z"/>
			<path fill="#CCCCCC" d="M312.263,598.754c0,0.578-0.457,1.037-1.03,1.037h-15.926c-0.565,0-1.032-0.459-1.032-1.037v-15.92
				c0-0.563,0.467-1.033,1.032-1.033h15.926c0.573,0,1.03,0.471,1.03,1.033V598.754z"/>
			<path fill="#CCCCCC" d="M334.184,598.754c0,0.578-0.468,1.037-1.041,1.037h-15.918c-0.568,0-1.031-0.459-1.031-1.037v-15.92
				c0-0.563,0.462-1.033,1.031-1.033h15.918c0.573,0,1.041,0.471,1.041,1.033V598.754z"/>
			<path fill="#CCCCCC" d="M356.095,598.754c0,0.578-0.457,1.037-1.032,1.037h-15.92c-0.572,0-1.036-0.459-1.036-1.037v-15.92
				c0-0.563,0.464-1.033,1.036-1.033h15.92c0.575,0,1.032,0.471,1.032,1.033V598.754z"/>
			<path fill="#CCCCCC" d="M378.016,598.754c0,0.578-0.469,1.037-1.035,1.037h-15.925c-0.567,0-1.032-0.459-1.032-1.037v-15.92
				c0-0.563,0.465-1.033,1.032-1.033h15.925c0.566,0,1.035,0.471,1.035,1.033V598.754z"/>
			<path fill="#CCCCCC" d="M399.933,598.754c0,0.578-0.471,1.037-1.039,1.037h-15.917c-0.564,0-1.043-0.459-1.043-1.037v-15.92
				c0-0.563,0.479-1.033,1.043-1.033h15.917c0.568,0,1.039,0.471,1.039,1.033V598.754z"/>
			<path fill="#CCCCCC" d="M421.847,598.754c0,0.578-0.467,1.037-1.038,1.037h-15.913c-0.573,0-1.039-0.459-1.039-1.037v-15.92
				c0-0.563,0.466-1.033,1.039-1.033h15.913c0.571,0,1.038,0.471,1.038,1.033V598.754z"/>
			<path fill="#CCCCCC" d="M443.761,598.754c0,0.578-0.461,1.037-1.036,1.037h-15.917c-0.571,0-1.035-0.459-1.035-1.037v-15.92
				c0-0.563,0.464-1.033,1.035-1.033h15.917c0.575,0,1.036,0.471,1.036,1.033V598.754z"/>
			<path fill="#CCCCCC" d="M465.682,598.754c0,0.578-0.471,1.037-1.037,1.037h-15.919c-0.57,0-1.037-0.459-1.037-1.037v-15.92
				c0-0.563,0.467-1.033,1.037-1.033h15.919c0.566,0,1.037,0.471,1.037,1.033V598.754z"/>
			<path fill="#CCCCCC" d="M487.6,598.754c0,0.578-0.468,1.037-1.038,1.037h-15.923c-0.573,0-1.036-0.459-1.036-1.037v-15.92
				c0-0.563,0.463-1.033,1.036-1.033h15.923c0.57,0,1.038,0.471,1.038,1.033V598.754z"/>
			<path fill="#CCCCCC" d="M509.511,598.754c0,0.578-0.466,1.037-1.036,1.037h-15.912c-0.577,0-1.044-0.459-1.044-1.037v-15.92
				c0-0.563,0.467-1.033,1.044-1.033h15.912c0.57,0,1.036,0.471,1.036,1.033V598.754z"/>
			<path fill="#CCCCCC" d="M531.428,598.754c0,0.578-0.467,1.037-1.035,1.037h-15.924c-0.569,0-1.03-0.459-1.03-1.037v-15.92
				c0-0.563,0.461-1.033,1.03-1.033h15.924c0.568,0,1.035,0.471,1.035,1.033V598.754z"/>
			<path fill="#CCCCCC" d="M307.078,576.834c0,0.58-0.467,1.049-1.042,1.049H290.12c-0.57,0-1.042-0.469-1.042-1.049v-15.916
				c0-0.566,0.472-1.035,1.042-1.035h15.916c0.575,0,1.042,0.469,1.042,1.035V576.834z"/>
			<path fill="#CCCCCC" d="M328.994,576.834c0,0.58-0.467,1.049-1.042,1.049h-15.917c-0.569,0-1.035-0.469-1.035-1.049v-15.916
				c0-0.566,0.466-1.035,1.035-1.035h15.917c0.575,0,1.042,0.469,1.042,1.035V576.834z"/>
			<path fill="#CCCCCC" d="M350.909,576.834c0,0.58-0.466,1.049-1.041,1.049h-15.917c-0.565,0-1.031-0.469-1.031-1.049v-15.916
				c0-0.566,0.465-1.035,1.031-1.035h15.917c0.575,0,1.041,0.469,1.041,1.035V576.834z"/>
			<path fill="#CCCCCC" d="M372.82,576.834c0,0.58-0.467,1.049-1.033,1.049H355.87c-0.573,0-1.04-0.469-1.04-1.049v-15.916
				c0-0.566,0.467-1.035,1.04-1.035h15.917c0.566,0,1.033,0.469,1.033,1.035V576.834z"/>
			<path fill="#CCCCCC" d="M394.74,576.834c0,0.58-0.464,1.049-1.042,1.049h-15.915c-0.57,0-1.034-0.469-1.034-1.049v-15.916
				c0-0.566,0.464-1.035,1.034-1.035h15.915c0.577,0,1.042,0.469,1.042,1.035V576.834z"/>
			<path fill="#CCCCCC" d="M416.652,576.834c0,0.58-0.46,1.049-1.033,1.049H399.7c-0.573,0-1.04-0.469-1.04-1.049v-15.916
				c0-0.566,0.467-1.035,1.04-1.035h15.919c0.573,0,1.033,0.469,1.033,1.035V576.834z"/>
			<path fill="#CCCCCC" d="M438.57,576.834c0,0.58-0.46,1.049-1.035,1.049h-15.922c-0.565,0-1.032-0.469-1.032-1.049v-15.916
				c0-0.566,0.467-1.035,1.032-1.035h15.922c0.575,0,1.035,0.469,1.035,1.035V576.834z"/>
			<path fill="#CCCCCC" d="M460.492,576.834c0,0.58-0.467,1.049-1.044,1.049h-15.917c-0.571,0-1.037-0.469-1.037-1.049v-15.916
				c0-0.566,0.466-1.035,1.037-1.035h15.917c0.577,0,1.044,0.469,1.044,1.035V576.834z"/>
			<path fill="#CCCCCC" d="M482.402,576.834c0,0.58-0.467,1.049-1.031,1.049h-15.919c-0.574,0-1.037-0.469-1.037-1.049v-15.916
				c0-0.566,0.463-1.035,1.037-1.035h15.919c0.564,0,1.031,0.469,1.031,1.035V576.834z"/>
			<path fill="#CCCCCC" d="M504.323,576.834c0,0.58-0.467,1.049-1.044,1.049h-15.916c-0.563,0-1.035-0.469-1.035-1.049v-15.916
				c0-0.566,0.473-1.035,1.035-1.035h15.916c0.577,0,1.044,0.469,1.044,1.035V576.834z"/>
			<path fill="#CCCCCC" d="M526.236,576.834c0,0.58-0.466,1.049-1.034,1.049h-15.918c-0.574,0-1.04-0.469-1.04-1.049v-15.916
				c0-0.566,0.466-1.035,1.04-1.035h15.918c0.568,0,1.034,0.469,1.034,1.035V576.834z"/>
			<path fill="#CCCCCC" d="M263.246,576.834c0,0.58-0.466,1.049-1.041,1.049h-26.988c-0.575,0-1.042-0.469-1.042-1.049v-15.916
				c0-0.566,0.466-1.035,1.042-1.035h26.988c0.575,0,1.041,0.469,1.041,1.035V576.834z"/>
			<path fill="#CCCCCC" d="M548.153,554.92c0,0.574-0.467,1.041-1.039,1.041h-26.991c-0.563,0-1.036-0.467-1.036-1.041v-15.912
				c0-0.576,0.473-1.041,1.036-1.041h26.991c0.572,0,1.039,0.465,1.039,1.041V554.92z"/>
			<path fill="#CCCCCC" d="M268.432,598.754c0,0.578-0.461,1.037-1.04,1.037h-32.174c-0.575,0-1.042-0.459-1.042-1.037v-15.92
				c0-0.563,0.466-1.033,1.042-1.033h32.174c0.579,0,1.04,0.471,1.04,1.033V598.754z"/>
			<path fill="#CCCCCC" d="M257.711,620.67c0,0.57-0.467,1.041-1.041,1.041h-21.452c-0.575,0-1.042-0.471-1.042-1.041v-15.916
				c0-0.57,0.466-1.043,1.042-1.043h21.452c0.574,0,1.041,0.473,1.041,1.043V620.67z"/>
			<path fill="#CCCCCC" d="M274.087,554.92c0,0.574-0.463,1.041-1.043,1.041h-15.907c-0.573,0-1.041-0.467-1.041-1.041v-15.912
				c0-0.576,0.468-1.041,1.041-1.041h15.907c0.58,0,1.043,0.465,1.043,1.041V554.92z"/>
			<path fill="#CCCCCC" d="M296.005,554.92c0,0.574-0.466,1.041-1.039,1.041h-15.919c-0.567,0-1.032-0.467-1.032-1.041v-15.912
				c0-0.576,0.465-1.041,1.032-1.041h15.919c0.573,0,1.039,0.465,1.039,1.041V554.92z"/>
			<path fill="#CCCCCC" d="M317.929,554.92c0,0.574-0.478,1.041-1.05,1.041h-15.917c-0.57,0-1.036-0.467-1.036-1.041v-15.912
				c0-0.576,0.465-1.041,1.036-1.041h15.917c0.572,0,1.05,0.465,1.05,1.041V554.92z"/>
			<path fill="#CCCCCC" d="M339.838,554.92c0,0.574-0.469,1.041-1.042,1.041h-15.917c-0.569,0-1.041-0.467-1.041-1.041v-15.912
				c0-0.576,0.471-1.041,1.041-1.041h15.917c0.574,0,1.042,0.465,1.042,1.041V554.92z"/>
			<path fill="#CCCCCC" d="M361.746,554.92c0,0.574-0.458,1.041-1.034,1.041h-15.917c-0.57,0-1.037-0.467-1.037-1.041v-15.912
				c0-0.576,0.467-1.041,1.037-1.041h15.917c0.576,0,1.034,0.465,1.034,1.041V554.92z"/>
			<path fill="#CCCCCC" d="M383.669,554.92c0,0.574-0.468,1.041-1.041,1.041h-15.907c-0.577,0-1.042-0.467-1.042-1.041v-15.912
				c0-0.576,0.466-1.041,1.042-1.041h15.907c0.573,0,1.041,0.465,1.041,1.041V554.92z"/>
			<path fill="#CCCCCC" d="M405.578,554.92c0,0.574-0.456,1.041-1.033,1.041h-15.913c-0.577,0-1.043-0.467-1.043-1.041v-15.912
				c0-0.576,0.466-1.041,1.043-1.041h15.913c0.577,0,1.033,0.465,1.033,1.041V554.92z"/>
			<path fill="#CCCCCC" d="M427.499,554.92c0,0.574-0.466,1.041-1.044,1.041h-15.916c-0.572,0-1.038-0.467-1.038-1.041v-15.912
				c0-0.576,0.466-1.041,1.038-1.041h15.916c0.578,0,1.044,0.465,1.044,1.041V554.92z"/>
			<path fill="#CCCCCC" d="M449.41,554.92c0,0.574-0.46,1.041-1.031,1.041h-15.915c-0.578,0-1.043-0.467-1.043-1.041v-15.912
				c0-0.576,0.465-1.041,1.043-1.041h15.915c0.571,0,1.031,0.465,1.031,1.041V554.92z"/>
			<path fill="#CCCCCC" d="M471.334,554.92c0,0.574-0.471,1.041-1.036,1.041h-15.923c-0.567,0-1.034-0.467-1.034-1.041v-15.912
				c0-0.576,0.467-1.041,1.034-1.041h15.923c0.565,0,1.036,0.465,1.036,1.041V554.92z"/>
			<path fill="#CCCCCC" d="M493.25,554.92c0,0.574-0.466,1.041-1.04,1.041h-15.916c-0.576,0-1.044-0.467-1.044-1.041v-15.912
				c0-0.576,0.468-1.041,1.044-1.041h15.916c0.574,0,1.04,0.465,1.04,1.041V554.92z"/>
			<path fill="#CCCCCC" d="M515.161,554.92c0,0.574-0.462,1.041-1.032,1.041h-15.926c-0.566,0-1.032-0.467-1.032-1.041v-15.912
				c0-0.576,0.466-1.041,1.032-1.041h15.926c0.57,0,1.032,0.465,1.032,1.041V554.92z"/>
			<g>
				<path fill="#CCCCCC" d="M508.419,636.6v8.754c0,0.27,0.102,0.541,0.301,0.734c0.205,0.205,0.475,0.307,0.737,0.307h15.919
					c0.264,0,0.525-0.102,0.733-0.307c0.203-0.193,0.305-0.465,0.305-0.734V636.6H508.419z"/>
				<path fill="#CCCCCC" d="M526.414,635.424v-8.756c0-0.26-0.102-0.529-0.305-0.729c-0.208-0.205-0.47-0.311-0.733-0.311h-15.919
					c-0.263,0-0.532,0.105-0.737,0.311c-0.199,0.199-0.301,0.469-0.301,0.729v8.756H526.414z"/>
			</g>
			<path fill="#CCCCCC" d="M531.194,559.883c-0.262,0-0.525,0.096-0.73,0.305c-0.202,0.201-0.298,0.463-0.298,0.73v15.916
				c0,0.268,0.096,0.535,0.298,0.742c0.205,0.197,0.469,0.307,0.73,0.307h4.156v20.871c0,0.27,0.105,0.537,0.307,0.734
				c0.203,0.205,0.466,0.303,0.734,0.303h10.723c0.269,0,0.531-0.098,0.737-0.303c0.205-0.197,0.307-0.465,0.307-0.734v-37.836
				c0-0.268-0.102-0.529-0.307-0.73c-0.206-0.209-0.469-0.305-0.737-0.305H531.194z"/>
		</g>
	</g>
	<g id="hand_1_">
		<g>
			<path fill="#F9BB88" d="M289.122,577.206c-3.922,0.003-7.104,3.188-7.102,7.114l0.037,52.347
				c0.001,3.925,3.187,7.104,7.112,7.103l0,0c3.927-0.004,7.107-3.187,7.104-7.112l-0.032-52.346
				C296.238,580.385,293.051,577.204,289.122,577.206L289.122,577.206z"/>
			<path fill="#F9BB88" d="M313.981,672.854c0.007,10.199-8.254,18.473-18.452,18.48l-30.005,0.021
				c-10.2,0.007-18.476-8.255-18.48-18.455l-0.024-30.005c-0.007-10.198,8.255-18.474,18.454-18.483l30.007-0.018
				c10.203-0.007,18.472,8.254,18.479,18.454L313.981,672.854z"/>
			<path fill="#F9BB88" d="M254.101,600.553c-3.926,0.003-7.107,3.188-7.106,7.112l0.024,33.528
				c0.001,3.925,3.189,7.105,7.114,7.104l0,0c3.926-0.003,7.104-3.188,7.103-7.113l-0.024-33.529
				C261.21,603.73,258.026,600.549,254.101,600.553L254.101,600.553z"/>
			<path fill="#F9BB88" d="M271.487,586.627c-3.926,0.003-7.108,3.191-7.104,7.117l0.036,52.344
				c0.003,3.927,3.189,7.108,7.115,7.105l0,0c3.925-0.002,7.108-3.19,7.105-7.115l-0.039-52.343
				C278.597,589.809,275.413,586.623,271.487,586.627L271.487,586.627z"/>
			<path fill="#F9BB88" d="M306.771,584.009c-3.926,0.003-7.11,3.188-7.105,7.114l0.038,52.346c0.002,3.925,3.189,7.105,7.113,7.104
				l0,0c3.927-0.003,7.109-3.19,7.106-7.114l-0.037-52.348C313.884,587.188,310.696,584.004,306.771,584.009L306.771,584.009z"/>
			<path fill="#F9BB88" d="M254.519,735.595l-0.047-68.269c-0.005-6.919,5.598-12.531,12.518-12.535l20.354-0.015
				c6.921-0.008,12.532,5.6,12.536,12.52l0.047,68.267L254.519,735.595z"/>
			<path fill="#F9BB88" d="M317.258,670.205l-0.02-27.119c-0.003-5.797,4.69-10.501,10.489-10.506l3.498-0.001
				c0.148-0.001,0.291,0.017,0.438,0.022l0.017,23.161L317.258,670.205z"/>
			<path fill="#F9BB88" d="M308.217,666.328l17.606-17.629c1.665-1.668,3.753-2.646,5.918-2.961l0.013,17.447l-23.523,23.554
				L308.217,666.328z"/>
		</g>
		<rect x="253.072" y="700.748" fill="#FFFFFF" width="46.855" height="23.366"/>
		<rect x="251.163" y="732.964" fill="#104D7C" width="52.099" height="67.036"/>
		<rect x="249.574" y="709.272" fill="#1C75BC" width="55.047" height="34.822"/>
		<circle fill="#424244" cx="297.469" cy="717.54" r="2.293"/>
	</g>
	<g id="hand">
		<g>
			<path fill="#F9BB88" d="M608.713,579.168c3.923,0.004,7.104,3.188,7.103,7.114l-0.037,52.347
				c-0.002,3.926-3.187,7.104-7.113,7.103l0,0c-3.927-0.003-7.106-3.187-7.104-7.112l0.031-52.346
				C601.597,582.347,604.783,579.167,608.713,579.168L608.713,579.168z"/>
			<path fill="#F9BB88" d="M583.853,674.816c-0.006,10.2,8.254,18.473,18.453,18.48l30.005,0.021
				c10.2,0.007,18.476-8.254,18.479-18.455l0.024-30.005c0.008-10.197-8.254-18.473-18.455-18.482l-30.006-0.018
				c-10.204-0.007-18.473,8.254-18.48,18.453L583.853,674.816z"/>
			<path fill="#F9BB88" d="M643.734,602.515c3.926,0.003,7.106,3.188,7.105,7.113l-0.024,33.528
				c-0.001,3.924-3.188,7.105-7.115,7.103l0,0c-3.926-0.002-7.104-3.188-7.102-7.112l0.024-33.529
				C636.625,605.692,639.809,602.512,643.734,602.515L643.734,602.515z"/>
			<path fill="#F9BB88" d="M626.348,588.589c3.927,0.003,7.108,3.191,7.104,7.117l-0.036,52.345
				c-0.004,3.926-3.189,7.107-7.115,7.104l0,0c-3.926-0.002-7.107-3.189-7.105-7.115l0.038-52.343
				C619.236,591.771,622.422,588.586,626.348,588.589L626.348,588.589z"/>
			<path fill="#F9BB88" d="M591.063,585.972c3.926,0.002,7.109,3.188,7.105,7.114l-0.038,52.346
				c-0.002,3.924-3.189,7.105-7.113,7.104l0,0c-3.927-0.003-7.109-3.19-7.105-7.114l0.036-52.349
				C583.95,589.149,587.139,585.967,591.063,585.972L591.063,585.972z"/>
			<path fill="#F9BB88" d="M643.315,737.557l0.048-68.268c0.004-6.919-5.599-12.531-12.519-12.536l-20.354-0.015
				c-6.922-0.008-12.531,5.6-12.536,12.52l-0.048,68.268L643.315,737.557z"/>
			<path fill="#F9BB88" d="M580.576,672.167l0.02-27.119c0.003-5.797-4.691-10.5-10.489-10.506l-3.497-0.001
				c-0.149-0.001-0.292,0.017-0.438,0.023l-0.018,23.161L580.576,672.167z"/>
			<path fill="#F9BB88" d="M589.618,668.29l-17.607-17.629c-1.665-1.668-3.752-2.646-5.918-2.961l-0.013,17.447l23.523,23.555
				L589.618,668.29z"/>
		</g>
		<rect x="597.906" y="702.71" fill="#FFFFFF" width="46.855" height="23.367"/>
		<rect x="594.572" y="734.926" fill="#104D7C" width="52.099" height="65.074"/>
		<rect x="593.214" y="711.234" fill="#1C75BC" width="55.047" height="34.822"/>
		<circle fill="#424244" cx="600.366" cy="719.503" r="2.293"/>
	</g>
</g>
</svg>
